<svg viewBox="0 0 800 500" xmlns="http://www.w3.org/2000/svg">
  <defs>
    <linearGradient id="bg" x1="0" y1="0" x2="800" y2="500" gradientUnits="userSpaceOnUse">
      <stop offset="0%" stop-color="#0A1628"/><stop offset="100%" stop-color="#0C2240"/>
    </linearGradient>
    <filter id="sh"><feDropShadow dx="0" dy="10" stdDeviation="18" flood-color="#000" flood-opacity="0.45"/></filter>
  </defs>
  <rect width="800" height="500" fill="url(#bg)"/>
  <circle cx="400" cy="100" r="230" fill="#06B6D4" opacity="0.07"/>
  <circle cx="150" cy="450" r="160" fill="#0891B2" opacity="0.04"/>

  <rect x="44" y="34" width="712" height="426" rx="12" fill="#FFFFFF" filter="url(#sh)"/>
  <path d="M44 46 Q44 34 56 34 L744 34 Q756 34 756 46 L756 78 L44 78 Z" fill="#0C2240"/>
  <circle cx="74" cy="56" r="6" fill="#EF4444" opacity="0.85"/>
  <circle cx="93" cy="56" r="6" fill="#F59E0B" opacity="0.85"/>
  <circle cx="112" cy="56" r="6" fill="#22C55E" opacity="0.85"/>
  <rect x="252" y="45" width="252" height="22" rx="11" fill="#0D2E50"/>
  <text x="378" y="61" text-anchor="middle" fill="#94A3B8" font-size="10" font-family="Arial,sans-serif">assistant.primeaccess / chat</text>

  <!-- Header -->
  <rect x="44" y="78" width="712" height="44" fill="#ECFEFF"/>
  <text x="64" y="106" fill="#0E7490" font-size="13" font-weight="bold" font-family="Arial,sans-serif">🤖 KnowledgeAI Assistant</text>
  <rect x="540" y="88" width="56" height="22" rx="6" fill="#DCFCE7"/>
  <text x="568" y="103" text-anchor="middle" fill="#16A34A" font-size="9" font-weight="bold" font-family="Arial,sans-serif">● Online</text>
  <rect x="604" y="88" width="140" height="22" rx="6" fill="#CFFAFE" stroke="#A5F3FC" stroke-width="1"/>
  <text x="674" y="103" text-anchor="middle" fill="#0E7490" font-size="9" font-family="Arial,sans-serif">RAG Mode Active</text>

  <!-- Left: Chat interface -->
  <rect x="44" y="122" width="416" height="338" fill="#F0FAFB"/>
  <rect x="44" y="122" width="416" height="36" fill="#ECFEFF"/>
  <text x="60" y="146" fill="#0E7490" font-size="10" font-weight="bold" font-family="Arial,sans-serif">Chat</text>
  <text x="130" y="146" fill="#9CA3AF" font-size="9" font-family="Arial,sans-serif">3 sessions today</text>

  <!-- User bubble -->
  <rect x="250" y="165" width="198" height="42" rx="12" fill="#06B6D4"/>
  <text x="264" y="182" fill="#FFF" font-size="10" font-family="Arial,sans-serif">How do I set up my API keys</text>
  <text x="264" y="197" fill="rgba(255,255,255,0.8)" font-size="10" font-family="Arial,sans-serif">for the payment module?</text>
  <text x="444" y="215" text-anchor="end" fill="#9CA3AF" font-size="8" font-family="Arial,sans-serif">10:32 AM</text>

  <!-- AI bubble -->
  <rect x="60" y="222" width="330" height="82" rx="12" fill="#FFF" stroke="#A5F3FC" stroke-width="1.5"/>
  <circle cx="78" cy="238" r="10" fill="#06B6D4"/>
  <text x="78" y="243" text-anchor="middle" fill="#FFF" font-size="9" font-weight="bold" font-family="Arial,sans-serif">AI</text>
  <text x="98" y="240" fill="#374151" font-size="10" font-family="Arial,sans-serif">To configure API keys for the payment</text>
  <text x="98" y="254" fill="#374151" font-size="10" font-family="Arial,sans-serif">module, navigate to Settings → Integrations.</text>
  <text x="98" y="268" fill="#374151" font-size="10" font-family="Arial,sans-serif">Enter your Stripe public and secret keys.</text>
  <rect x="60" y="280" width="100" height="16" rx="6" fill="#ECFEFF"/>
  <text x="66" y="292" fill="#0E7490" font-size="8" font-family="Arial,sans-serif">📄 Docs: API Setup</text>
  <text x="60" y="312" fill="#9CA3AF" font-size="8" font-family="Arial,sans-serif">10:32 AM • Retrieved from: api-setup.md</text>

  <!-- User bubble 2 -->
  <rect x="260" y="320" width="188" height="30" rx="12" fill="#06B6D4"/>
  <text x="274" y="340" fill="#FFF" font-size="10" font-family="Arial,sans-serif">What are the webhook events?</text>
  <text x="444" y="358" text-anchor="end" fill="#9CA3AF" font-size="8" font-family="Arial,sans-serif">10:33 AM</text>

  <!-- AI bubble 2 (typing) -->
  <rect x="60" y="366" width="180" height="36" rx="12" fill="#FFF" stroke="#A5F3FC" stroke-width="1.5"/>
  <circle cx="78" cy="382" r="8" fill="#06B6D4"/>
  <text x="78" y="387" text-anchor="middle" fill="#FFF" font-size="8" font-weight="bold" font-family="Arial,sans-serif">AI</text>
  <circle cx="100" cy="384" r="4" fill="#06B6D4" opacity="0.6"/>
  <circle cx="114" cy="384" r="4" fill="#06B6D4" opacity="0.8"/>
  <circle cx="128" cy="384" r="4" fill="#06B6D4"/>
  <text x="98" y="393" fill="#9CA3AF" font-size="8" font-family="Arial,sans-serif">Analyzing docs...</text>

  <!-- Input bar -->
  <rect x="56" y="412" width="392" height="36" rx="18" fill="#FFF" stroke="#A5F3FC" stroke-width="1.5"/>
  <text x="76" y="434" fill="#9CA3AF" font-size="10" font-family="Arial,sans-serif">Ask anything about the platform...</text>
  <circle cx="428" cy="430" r="14" fill="#06B6D4"/>
  <text x="428" y="435" text-anchor="middle" fill="#FFF" font-size="12" font-family="Arial,sans-serif">↑</text>

  <!-- Right: Knowledge base -->
  <rect x="460" y="122" width="296" height="338" fill="#FFF"/>
  <rect x="460" y="122" width="296" height="36" fill="#ECFEFF"/>
  <text x="476" y="146" fill="#0E7490" font-size="10" font-weight="bold" font-family="Arial,sans-serif">Knowledge Base</text>
  <text x="620" y="146" text-anchor="middle" fill="#06B6D4" font-size="9" font-family="Arial,sans-serif">48 docs indexed</text>

  <!-- Doc items -->
  <rect x="468" y="166" width="280" height="38" rx="6" fill="#ECFEFF" stroke="#A5F3FC" stroke-width="1"/>
  <text x="490" y="183" fill="#0E7490" font-size="10" font-weight="bold" font-family="Arial,sans-serif">📄 API Setup Guide</text>
  <text x="490" y="197" fill="#6B7280" font-size="9" font-family="Arial,sans-serif">Last updated: today • 2.4k tokens</text>
  <rect x="720" y="171" width="18" height="10" rx="3" fill="#DCFCE7"/>
  <text x="729" y="180" text-anchor="middle" fill="#16A34A" font-size="7" font-family="Arial,sans-serif">↑</text>

  <rect x="468" y="210" width="280" height="38" rx="6" fill="#FFF" stroke="#E2E8F0" stroke-width="1"/>
  <text x="490" y="227" fill="#374151" font-size="10" font-weight="bold" font-family="Arial,sans-serif">📄 Webhook Events Reference</text>
  <text x="490" y="241" fill="#6B7280" font-size="9" font-family="Arial,sans-serif">Last updated: 2 days ago • 3.1k tokens</text>

  <rect x="468" y="254" width="280" height="38" rx="6" fill="#FFF" stroke="#E2E8F0" stroke-width="1"/>
  <text x="490" y="271" fill="#374151" font-size="10" font-weight="bold" font-family="Arial,sans-serif">📄 Onboarding Checklist</text>
  <text x="490" y="285" fill="#6B7280" font-size="9" font-family="Arial,sans-serif">Last updated: 5 days ago • 1.8k tokens</text>

  <rect x="468" y="298" width="280" height="38" rx="6" fill="#FFF" stroke="#E2E8F0" stroke-width="1"/>
  <text x="490" y="315" fill="#374151" font-size="10" font-weight="bold" font-family="Arial,sans-serif">📄 Payment Module Config</text>
  <text x="490" y="329" fill="#6B7280" font-size="9" font-family="Arial,sans-serif">Last updated: today • 2.0k tokens</text>

  <rect x="468" y="342" width="280" height="38" rx="6" fill="#FFF" stroke="#E2E8F0" stroke-width="1"/>
  <text x="490" y="359" fill="#374151" font-size="10" font-weight="bold" font-family="Arial,sans-serif">📄 Security Best Practices</text>
  <text x="490" y="373" fill="#6B7280" font-size="9" font-family="Arial,sans-serif">Last updated: 1 week ago • 4.2k tokens</text>

  <!-- RAG stats -->
  <rect x="468" y="390" width="280" height="62" rx="8" fill="#ECFEFF" stroke="#A5F3FC" stroke-width="1.5"/>
  <text x="480" y="408" fill="#0E7490" font-size="10" font-weight="bold" font-family="Arial,sans-serif">RAG Pipeline Stats</text>
  <text x="480" y="424" fill="#6B7280" font-size="9" font-family="Arial,sans-serif">Retrieval accuracy: 94.2%</text>
  <text x="480" y="438" fill="#6B7280" font-size="9" font-family="Arial,sans-serif">Avg response time: 1.2s</text>
  <text x="480" y="445" fill="#6B7280" font-size="9" font-family="Arial,sans-serif">Queries today: 1,240</text>
</svg>
