<svg viewBox="0 0 800 500" xmlns="http://www.w3.org/2000/svg">
  <defs>
    <linearGradient id="bg" x1="0" y1="0" x2="800" y2="500" gradientUnits="userSpaceOnUse">
      <stop offset="0%" stop-color="#0F0B2E"/><stop offset="100%" stop-color="#1A1545"/>
    </linearGradient>
    <filter id="sh"><feDropShadow dx="0" dy="10" stdDeviation="18" flood-color="#000" flood-opacity="0.45"/></filter>
  </defs>
  <rect width="800" height="500" fill="url(#bg)"/>
  <circle cx="400" cy="100" r="220" fill="#6366F1" opacity="0.07"/>

  <rect x="44" y="34" width="712" height="426" rx="12" fill="#1E1E2E" filter="url(#sh)"/>
  <path d="M44 46 Q44 34 56 34 L744 34 Q756 34 756 46 L756 78 L44 78 Z" fill="#111122"/>
  <circle cx="74" cy="56" r="6" fill="#EF4444" opacity="0.85"/>
  <circle cx="93" cy="56" r="6" fill="#F59E0B" opacity="0.85"/>
  <circle cx="112" cy="56" r="6" fill="#22C55E" opacity="0.85"/>
  <rect x="252" y="45" width="252" height="22" rx="11" fill="#1A1535"/>
  <text x="378" y="61" text-anchor="middle" fill="#94A3B8" font-size="10" font-family="monospace">github.com / product-app / main</text>

  <!-- Tabs -->
  <rect x="44" y="78" width="712" height="34" fill="#181830"/>
  <rect x="56" y="87" width="80" height="24" rx="6" fill="#2D2D4E"/>
  <text x="96" y="103" text-anchor="middle" fill="#A5B4FC" font-size="9" font-weight="bold" font-family="monospace">◉ editor</text>
  <rect x="142" y="87" width="60" height="24" rx="6" fill="transparent"/>
  <text x="172" y="103" text-anchor="middle" fill="#6B7280" font-size="9" font-family="monospace">pull-req</text>
  <rect x="208" y="87" width="60" height="24" rx="6" fill="transparent"/>
  <text x="238" y="103" text-anchor="middle" fill="#6B7280" font-size="9" font-family="monospace">commits</text>
  <rect x="600" y="88" width="140" height="22" rx="6" fill="#4F46E5"/>
  <text x="670" y="103" text-anchor="middle" fill="#FFF" font-size="9" font-weight="bold" font-family="monospace">▶ Run Tests</text>

  <!-- Left: Code editor -->
  <rect x="44" y="112" width="410" height="348" fill="#1E1E2E"/>
  <!-- File tabs -->
  <rect x="44" y="112" width="410" height="22" fill="#252538"/>
  <rect x="52" y="116" width="90" height="14" rx="3" fill="#1E1E2E"/>
  <text x="62" y="127" fill="#A5B4FC" font-size="8" font-family="monospace">auth.service.ts</text>
  <rect x="148" y="116" width="80" height="14" rx="3" fill="transparent"/>
  <text x="156" y="127" fill="#6B7280" font-size="8" font-family="monospace">user.model.ts</text>
  <rect x="234" y="116" width="80" height="14" rx="3" fill="transparent"/>
  <text x="242" y="127" fill="#6B7280" font-size="8" font-family="monospace">api.routes.ts</text>

  <!-- Code lines -->
  <text x="56" y="152" fill="#6B7280" font-size="9" font-family="monospace">  1</text>
  <text x="80" y="152" fill="#C678DD" font-size="9" font-family="monospace">import</text>
  <text x="120" y="152" fill="#ABB2BF" font-size="9" font-family="monospace">{ Injectable } </text>
  <text x="225" y="152" fill="#C678DD" font-size="9" font-family="monospace">from</text>
  <text x="255" y="152" fill="#98C379" font-size="9" font-family="monospace">'@nestjs/common'</text>

  <text x="56" y="167" fill="#6B7280" font-size="9" font-family="monospace">  2</text>
  <text x="80" y="167" fill="#C678DD" font-size="9" font-family="monospace">import</text>
  <text x="120" y="167" fill="#ABB2BF" font-size="9" font-family="monospace">{ JwtService }</text>
  <text x="215" y="167" fill="#C678DD" font-size="9" font-family="monospace">from</text>
  <text x="245" y="167" fill="#98C379" font-size="9" font-family="monospace">'@nestjs/jwt'</text>

  <text x="56" y="182" fill="#6B7280" font-size="9" font-family="monospace">  3</text>

  <text x="56" y="197" fill="#6B7280" font-size="9" font-family="monospace">  4</text>
  <text x="80" y="197" fill="#E06C75" font-size="9" font-family="monospace">@Injectable()</text>

  <text x="56" y="212" fill="#6B7280" font-size="9" font-family="monospace">  5</text>
  <text x="80" y="212" fill="#C678DD" font-size="9" font-family="monospace">export class</text>
  <text x="150" y="212" fill="#61AFEF" font-size="9" font-family="monospace">AuthService</text>
  <text x="213" y="212" fill="#ABB2BF" font-size="9" font-family="monospace">{'{'}</text>

  <text x="56" y="227" fill="#6B7280" font-size="9" font-family="monospace">  6</text>
  <text x="80" y="227" fill="#C678DD" font-size="9" font-family="monospace">  constructor</text>
  <text x="148" y="227" fill="#ABB2BF" font-size="9" font-family="monospace">(private jwt: JwtService) {}</text>

  <text x="56" y="242" fill="#6B7280" font-size="9" font-family="monospace">  7</text>

  <!-- Highlighted line (diff added) -->
  <rect x="44" y="248" width="410" height="16" fill="#1E3A1E" opacity="0.8"/>
  <text x="56" y="260" fill="#6B7280" font-size="9" font-family="monospace">  8</text>
  <text x="72" y="260" fill="#22C55E" font-size="9" font-family="monospace">+</text>
  <text x="82" y="260" fill="#98C379" font-size="9" font-family="monospace">  async validateToken</text>
  <text x="195" y="260" fill="#ABB2BF" font-size="9" font-family="monospace">(token: string)</text>
  <text x="280" y="260" fill="#ABB2BF" font-size="9" font-family="monospace">{'{'}...{'}'}</text>

  <rect x="44" y="264" width="410" height="16" fill="#1E3A1E" opacity="0.6"/>
  <text x="56" y="276" fill="#6B7280" font-size="9" font-family="monospace">  9</text>
  <text x="72" y="276" fill="#22C55E" font-size="9" font-family="monospace">+</text>
  <text x="82" y="276" fill="#61AFEF" font-size="9" font-family="monospace">    return</text>
  <text x="118" y="276" fill="#ABB2BF" font-size="9" font-family="monospace">this.jwt.verify(token, opts);</text>

  <text x="56" y="292" fill="#6B7280" font-size="9" font-family="monospace"> 10</text>
  <text x="80" y="292" fill="#C678DD" font-size="9" font-family="monospace">  async</text>
  <text x="115" y="292" fill="#61AFEF" font-size="9" font-family="monospace">login</text>
  <text x="140" y="292" fill="#ABB2BF" font-size="9" font-family="monospace">(user: UserDto) {'{'}</text>

  <text x="56" y="307" fill="#6B7280" font-size="9" font-family="monospace"> 11</text>
  <text x="80" y="307" fill="#C678DD" font-size="9" font-family="monospace">    const</text>
  <text x="118" y="307" fill="#ABB2BF" font-size="9" font-family="monospace">payload = {'{'} sub: user.id {'}'}</text>

  <text x="56" y="322" fill="#6B7280" font-size="9" font-family="monospace"> 12</text>
  <text x="80" y="322" fill="#C678DD" font-size="9" font-family="monospace">    return</text>
  <text x="116" y="322" fill="#ABB2BF" font-size="9" font-family="monospace">{'{'}</text>
  <text x="126" y="322" fill="#E5C07B" font-size="9" font-family="monospace">access_token</text>
  <text x="208" y="322" fill="#ABB2BF" font-size="9" font-family="monospace">{'}'}</text>

  <!-- Terminal at bottom -->
  <rect x="44" y="370" width="410" height="90" fill="#111122"/>
  <rect x="44" y="370" width="410" height="16" fill="#0D0D1E"/>
  <text x="56" y="382" fill="#6B7280" font-size="8" font-family="monospace">TERMINAL</text>
  <text x="56" y="400" fill="#22C55E" font-size="9" font-family="monospace">$ npm run test</text>
  <text x="56" y="415" fill="#ABB2BF" font-size="8" font-family="monospace">✓ auth.service.spec.ts (12 tests)</text>
  <text x="56" y="428" fill="#ABB2BF" font-size="8" font-family="monospace">✓ user.model.spec.ts (8 tests)</text>
  <text x="56" y="441" fill="#22C55E" font-size="8" font-family="monospace">All tests passed (20/20) • 340ms</text>
  <rect x="330" y="445" width="14" height="9" rx="1" fill="#22C55E" opacity="0.7"/>

  <!-- Right: PR list and commit activity -->
  <rect x="454" y="112" width="302" height="200" fill="#252538"/>
  <text x="468" y="132" fill="#A5B4FC" font-size="10" font-weight="bold" font-family="monospace">Pull Requests</text>
  <rect x="468" y="140" width="274" height="34" rx="6" fill="#1E1E2E"/>
  <rect x="468" y="140" width="3" height="34" rx="1.5" fill="#22C55E"/>
  <text x="478" y="153" fill="#ABB2BF" font-size="9" font-family="monospace">feat: add JWT refresh tokens</text>
  <text x="478" y="165" fill="#6B7280" font-size="8" font-family="monospace">+148 / -12 • Alex K. • 2h ago</text>
  <rect x="730" y="147" width="8" height="20" rx="2" fill="transparent"/>
  <text x="728" y="162" text-anchor="end" fill="#22C55E" font-size="8" font-family="monospace">Open</text>

  <rect x="468" y="180" width="274" height="34" rx="6" fill="#1E1E2E"/>
  <rect x="468" y="180" width="3" height="34" rx="1.5" fill="#4F46E5"/>
  <text x="478" y="193" fill="#ABB2BF" font-size="9" font-family="monospace">fix: payment edge case null ref</text>
  <text x="478" y="205" fill="#6B7280" font-size="8" font-family="monospace">+24 / -8 • Priya M. • 1d ago</text>
  <text x="728" y="200" text-anchor="end" fill="#A855F7" font-size="8" font-family="monospace">Review</text>

  <rect x="468" y="220" width="274" height="34" rx="6" fill="#1E1E2E"/>
  <rect x="468" y="220" width="3" height="34" rx="1.5" fill="#6B7280"/>
  <text x="478" y="233" fill="#6B7280" font-size="9" font-family="monospace">chore: update deps + lint</text>
  <text x="478" y="245" fill="#6B7280" font-size="8" font-family="monospace">+5 / -3 • Alex K. • 2d ago</text>
  <text x="728" y="240" text-anchor="end" fill="#6EE7B7" font-size="8" font-family="monospace">Merged</text>

  <rect x="468" y="260" width="274" height="34" rx="6" fill="#1E1E2E"/>
  <rect x="468" y="260" width="3" height="34" rx="1.5" fill="#6EE7B7"/>
  <text x="478" y="273" fill="#ABB2BF" font-size="9" font-family="monospace">feat: user profile avatar upload</text>
  <text x="478" y="285" fill="#6B7280" font-size="8" font-family="monospace">+210 / -18 • Sam T. • 3d ago</text>
  <text x="728" y="280" text-anchor="end" fill="#6EE7B7" font-size="8" font-family="monospace">Merged</text>

  <!-- Commit activity -->
  <rect x="454" y="318" width="302" height="142" fill="#1E1E2E"/>
  <rect x="454" y="318" width="302" height="24" fill="#252538"/>
  <text x="468" y="334" fill="#A5B4FC" font-size="10" font-weight="bold" font-family="monospace">Commit Activity (14 days)</text>
  <!-- Activity bars -->
  <rect x="466" y="358" width="14" height="30" rx="2" fill="#4F46E5" opacity="0.5"/>
  <rect x="486" y="348" width="14" height="40" rx="2" fill="#4F46E5" opacity="0.6"/>
  <rect x="506" y="362" width="14" height="26" rx="2" fill="#4F46E5" opacity="0.5"/>
  <rect x="526" y="342" width="14" height="46" rx="2" fill="#4F46E5" opacity="0.7"/>
  <rect x="546" y="338" width="14" height="50" rx="2" fill="#6366F1" opacity="0.8"/>
  <rect x="566" y="358" width="14" height="30" rx="2" fill="#4F46E5" opacity="0.5"/>
  <rect x="586" y="346" width="14" height="42" rx="2" fill="#4F46E5" opacity="0.65"/>
  <rect x="606" y="332" width="14" height="56" rx="2" fill="#6366F1" opacity="0.85"/>
  <rect x="626" y="348" width="14" height="40" rx="2" fill="#4F46E5" opacity="0.6"/>
  <rect x="646" y="336" width="14" height="52" rx="2" fill="#6366F1" opacity="0.8"/>
  <rect x="666" y="344" width="14" height="44" rx="2" fill="#4F46E5" opacity="0.7"/>
  <rect x="686" y="326" width="14" height="62" rx="2" fill="#818CF8"/>
  <rect x="706" y="342" width="14" height="46" rx="2" fill="#6366F1"/>
  <rect x="726" y="330" width="14" height="58" rx="2" fill="#818CF8"/>
  <text x="466" y="406" fill="#6B7280" font-size="8" font-family="monospace">May 5</text>
  <text x="726" y="406" text-anchor="end" fill="#6B7280" font-size="8" font-family="monospace">May 18</text>
  <text x="454" y="430" fill="#6B7280" font-size="8" font-family="monospace">Total: 87 commits • 3 contributors • 2,840 lines added</text>
  <!-- CI status -->
  <rect x="454" y="438" width="302" height="22" fill="#1A3A1A"/>
  <text x="468" y="453" fill="#22C55E" font-size="8" font-family="monospace">✓ CI/CD: Build passed • Tests: 20/20 • Deploy: Ready</text>
</svg>
