<svg viewBox="0 0 800 500" xmlns="http://www.w3.org/2000/svg">
  <defs>
    <linearGradient id="bg" x1="0" y1="0" x2="800" y2="500" gradientUnits="userSpaceOnUse">
      <stop offset="0%" stop-color="#1A0A1E"/><stop offset="100%" stop-color="#2D1245"/>
    </linearGradient>
    <filter id="sh"><feDropShadow dx="0" dy="10" stdDeviation="18" flood-color="#000" flood-opacity="0.45"/></filter>
  </defs>
  <rect width="800" height="500" fill="url(#bg)"/>
  <circle cx="200" cy="120" r="200" fill="#EC4899" opacity="0.07"/>
  <circle cx="680" cy="400" r="160" fill="#A855F7" opacity="0.05"/>

  <rect x="44" y="34" width="712" height="426" rx="12" fill="#FFFFFF" filter="url(#sh)"/>
  <path d="M44 46 Q44 34 56 34 L744 34 Q756 34 756 46 L756 78 L44 78 Z" fill="#2D1245"/>
  <circle cx="74" cy="56" r="6" fill="#EF4444" opacity="0.85"/>
  <circle cx="93" cy="56" r="6" fill="#F59E0B" opacity="0.85"/>
  <circle cx="112" cy="56" r="6" fill="#22C55E" opacity="0.85"/>
  <rect x="252" y="45" width="252" height="22" rx="11" fill="#3D1A55"/>
  <text x="378" y="61" text-anchor="middle" fill="#94A3B8" font-size="10" font-family="Arial,sans-serif">eventbook.app / discover</text>

  <!-- Header -->
  <rect x="44" y="78" width="712" height="44" fill="#FDF4FF"/>
  <text x="64" y="106" fill="#86198F" font-size="13" font-weight="bold" font-family="Arial,sans-serif">🎪 EventBook</text>
  <text x="175" y="106" fill="#6B7280" font-size="10" font-family="Arial,sans-serif">Discover</text>
  <text x="240" y="106" fill="#6B7280" font-size="10" font-family="Arial,sans-serif">My Events</text>
  <text x="310" y="106" fill="#6B7280" font-size="10" font-family="Arial,sans-serif">Organizer</text>
  <rect x="540" y="88" width="196" height="24" rx="12" fill="#FFF" stroke="#E879F9" stroke-width="1"/>
  <text x="638" y="104" text-anchor="middle" fill="#94A3B8" font-size="10" font-family="Arial,sans-serif">Search events...</text>

  <!-- Left: Calendar -->
  <rect x="44" y="122" width="280" height="338" fill="#FFF"/>
  <rect x="44" y="122" width="280" height="36" fill="#FDF4FF"/>
  <rect x="44" y="122" width="280" height="1" fill="#F3E8FF"/>
  <text x="184" y="146" text-anchor="middle" fill="#86198F" font-size="11" font-weight="bold" font-family="Arial,sans-serif">May 2025</text>
  <text x="56" y="146" fill="#A855F7" font-size="16" font-family="Arial,sans-serif">‹</text>
  <text x="308" y="146" text-anchor="end" fill="#A855F7" font-size="16" font-family="Arial,sans-serif">›</text>

  <!-- Calendar grid header -->
  <rect x="44" y="158" width="280" height="20" fill="#F9F0FF"/>
  <text x="70" y="173" text-anchor="middle" fill="#9CA3AF" font-size="9" font-family="Arial,sans-serif">Su</text>
  <text x="110" y="173" text-anchor="middle" fill="#9CA3AF" font-size="9" font-family="Arial,sans-serif">Mo</text>
  <text x="150" y="173" text-anchor="middle" fill="#9CA3AF" font-size="9" font-family="Arial,sans-serif">Tu</text>
  <text x="190" y="173" text-anchor="middle" fill="#9CA3AF" font-size="9" font-family="Arial,sans-serif">We</text>
  <text x="230" y="173" text-anchor="middle" fill="#9CA3AF" font-size="9" font-family="Arial,sans-serif">Th</text>
  <text x="270" y="173" text-anchor="middle" fill="#9CA3AF" font-size="9" font-family="Arial,sans-serif">Fr</text>
  <text x="310" y="173" text-anchor="middle" fill="#9CA3AF" font-size="9" font-family="Arial,sans-serif">Sa</text>

  <!-- Calendar dates row 1 -->
  <text x="150" y="196" text-anchor="middle" fill="#9CA3AF" font-size="10" font-family="Arial,sans-serif">1</text>
  <text x="190" y="196" text-anchor="middle" fill="#9CA3AF" font-size="10" font-family="Arial,sans-serif">2</text>
  <text x="230" y="196" text-anchor="middle" fill="#9CA3AF" font-size="10" font-family="Arial,sans-serif">3</text>
  <text x="270" y="196" text-anchor="middle" fill="#9CA3AF" font-size="10" font-family="Arial,sans-serif">4</text>
  <text x="310" y="196" text-anchor="middle" fill="#9CA3AF" font-size="10" font-family="Arial,sans-serif">5</text>
  <!-- Row 2 -->
  <text x="70" y="218" text-anchor="middle" fill="#374151" font-size="10" font-family="Arial,sans-serif">6</text>
  <text x="110" y="218" text-anchor="middle" fill="#374151" font-size="10" font-family="Arial,sans-serif">7</text>
  <text x="150" y="218" text-anchor="middle" fill="#374151" font-size="10" font-family="Arial,sans-serif">8</text>
  <rect x="170" y="207" width="40" height="20" rx="10" fill="#EC4899"/>
  <text x="190" y="221" text-anchor="middle" fill="#FFF" font-size="10" font-weight="bold" font-family="Arial,sans-serif">9</text>
  <text x="230" y="218" text-anchor="middle" fill="#374151" font-size="10" font-family="Arial,sans-serif">10</text>
  <text x="270" y="218" text-anchor="middle" fill="#374151" font-size="10" font-family="Arial,sans-serif">11</text>
  <text x="310" y="218" text-anchor="middle" fill="#374151" font-size="10" font-family="Arial,sans-serif">12</text>
  <!-- Event dots -->
  <circle cx="70" cy="225" r="3" fill="#EC4899"/>
  <circle cx="270" cy="225" r="3" fill="#A855F7"/>
  <!-- Row 3 -->
  <text x="70" y="240" text-anchor="middle" fill="#374151" font-size="10" font-family="Arial,sans-serif">13</text>
  <text x="110" y="240" text-anchor="middle" fill="#374151" font-size="10" font-family="Arial,sans-serif">14</text>
  <text x="150" y="240" text-anchor="middle" fill="#374151" font-size="10" font-family="Arial,sans-serif">15</text>
  <text x="190" y="240" text-anchor="middle" fill="#374151" font-size="10" font-family="Arial,sans-serif">16</text>
  <text x="230" y="240" text-anchor="middle" fill="#374151" font-size="10" font-family="Arial,sans-serif">17</text>
  <text x="270" y="240" text-anchor="middle" fill="#374151" font-size="10" font-family="Arial,sans-serif">18</text>
  <text x="310" y="240" text-anchor="middle" fill="#374151" font-size="10" font-family="Arial,sans-serif">19</text>
  <circle cx="150" cy="247" r="3" fill="#EC4899"/>
  <circle cx="150" cy="247" r="3" fill="#EC4899"/>
  <circle cx="310" cy="247" r="3" fill="#F97316"/>
  <!-- Event row -->
  <rect x="48" y="252" width="272" height="16" rx="4" fill="#FCE7F3"/>
  <text x="60" y="263" fill="#BE185D" font-size="8" font-family="Arial,sans-serif">🎵 Tech Summit 2025 — Starts</text>

  <!-- Upcoming events list -->
  <rect x="44" y="280" width="280" height="1" fill="#F3E8FF"/>
  <text x="56" y="298" fill="#374151" font-size="10" font-weight="bold" font-family="Arial,sans-serif">Upcoming Events</text>
  <rect x="56" y="306" width="260" height="54" rx="8" fill="#FDF4FF" stroke="#F3E8FF" stroke-width="1"/>
  <text x="70" y="325" fill="#111827" font-size="10" font-weight="bold" font-family="Arial,sans-serif">Tech Summit 2025</text>
  <text x="70" y="339" fill="#6B7280" font-size="9" font-family="Arial,sans-serif">May 20–22 • ExCeL London</text>
  <text x="70" y="352" fill="#EC4899" font-size="9" font-weight="bold" font-family="Arial,sans-serif">1,240 attending • From $199</text>
  <rect x="56" y="366" width="260" height="44" rx="8" fill="#FFF5F5" stroke="#FCE7F3" stroke-width="1"/>
  <text x="70" y="384" fill="#111827" font-size="10" font-weight="bold" font-family="Arial,sans-serif">Startup Mixer Night</text>
  <text x="70" y="398" fill="#6B7280" font-size="9" font-family="Arial,sans-serif">May 28 • Shoreditch, London</text>
  <rect x="56" y="416" width="260" height="44" rx="8" fill="#FFF" stroke="#E2E8F0" stroke-width="1"/>
  <text x="70" y="434" fill="#111827" font-size="10" font-weight="bold" font-family="Arial,sans-serif">AI &amp; ML Conference</text>
  <text x="70" y="448" fill="#6B7280" font-size="9" font-family="Arial,sans-serif">Jun 5 • Online + Venue</text>

  <!-- Right: Booking panel -->
  <rect x="324" y="122" width="432" height="338" fill="#F8FAFC"/>
  <rect x="324" y="122" width="432" height="44" fill="#FDF4FF"/>
  <text x="340" y="148" fill="#86198F" font-size="12" font-weight="bold" font-family="Arial,sans-serif">Book Tickets — Tech Summit 2025</text>
  <rect x="340" y="178" width="400" height="76" rx="8" fill="#FFF" stroke="#F3E8FF" stroke-width="1.5"/>
  <text x="356" y="198" fill="#374151" font-size="11" font-weight="bold" font-family="Arial,sans-serif">General Admission</text>
  <text x="356" y="214" fill="#6B7280" font-size="9" font-family="Arial,sans-serif">3-day access • Keynotes • Networking</text>
  <text x="356" y="230" fill="#EC4899" font-size="13" font-weight="bold" font-family="Arial,sans-serif">$199</text>
  <text x="356" y="244" fill="#9CA3AF" font-size="9" font-family="Arial,sans-serif">642 tickets remaining</text>
  <rect x="660" y="196" width="72" height="50" rx="6" fill="#FDF4FF" stroke="#EC4899" stroke-width="1.5"/>
  <text x="696" y="218" text-anchor="middle" fill="#9CA3AF" font-size="14" font-family="Arial,sans-serif">−</text>
  <text x="696" y="236" text-anchor="middle" fill="#EC4899" font-size="16" font-weight="bold" font-family="Arial,sans-serif">2</text>
  <text x="696" y="252" text-anchor="middle" fill="#9CA3AF" font-size="14" font-family="Arial,sans-serif">+</text>

  <rect x="340" y="262" width="400" height="54" rx="8" fill="#FFF" stroke="#E2E8F0" stroke-width="1"/>
  <text x="356" y="283" fill="#374151" font-size="11" font-weight="bold" font-family="Arial,sans-serif">VIP Workshop Pass</text>
  <text x="356" y="297" fill="#6B7280" font-size="9" font-family="Arial,sans-serif">All keynotes + 3 workshops + Dinner</text>
  <text x="356" y="311" fill="#EC4899" font-size="13" font-weight="bold" font-family="Arial,sans-serif">$399</text>

  <!-- Order summary -->
  <rect x="340" y="326" width="400" height="110" rx="8" fill="#FFF" stroke="#F3E8FF" stroke-width="1.5"/>
  <text x="356" y="346" fill="#374151" font-size="10" font-weight="bold" font-family="Arial,sans-serif">Order Summary</text>
  <text x="356" y="366" fill="#6B7280" font-size="10" font-family="Arial,sans-serif">General Admission × 2</text>
  <text x="728" y="366" text-anchor="end" fill="#374151" font-size="10" font-family="Arial,sans-serif">$398.00</text>
  <text x="356" y="384" fill="#6B7280" font-size="10" font-family="Arial,sans-serif">Booking fee</text>
  <text x="728" y="384" text-anchor="end" fill="#374151" font-size="10" font-family="Arial,sans-serif">$9.90</text>
  <rect x="340" y="394" width="400" height="1" fill="#F3E8FF"/>
  <text x="356" y="412" fill="#111827" font-size="12" font-weight="bold" font-family="Arial,sans-serif">Total</text>
  <text x="728" y="412" text-anchor="end" fill="#EC4899" font-size="14" font-weight="bold" font-family="Arial,sans-serif">$407.90</text>
  <rect x="340" y="420" width="400" height="28" rx="8" fill="#EC4899"/>
  <text x="540" y="438" text-anchor="middle" fill="#FFF" font-size="11" font-weight="bold" font-family="Arial,sans-serif">Complete Booking →</text>
</svg>
