<svg viewBox="0 0 800 500" xmlns="http://www.w3.org/2000/svg">
  <defs>
    <linearGradient id="bg" x1="0" y1="0" x2="800" y2="500" gradientUnits="userSpaceOnUse">
      <stop offset="0%" stop-color="#0D1B2A"/><stop offset="100%" stop-color="#1A2E4A"/>
    </linearGradient>
    <filter id="sh"><feDropShadow dx="0" dy="10" stdDeviation="18" flood-color="#000" flood-opacity="0.5"/></filter>
  </defs>
  <rect width="800" height="500" fill="url(#bg)"/>
  <circle cx="200" cy="80" r="180" fill="#F59E0B" opacity="0.05"/>
  <circle cx="650" cy="420" r="140" fill="#22C55E" opacity="0.04"/>

  <!-- Browser frame -->
  <rect x="44" y="34" width="712" height="426" rx="12" fill="#0F1420" filter="url(#sh)"/>
  <path d="M44 46 Q44 34 56 34 L744 34 Q756 34 756 46 L756 78 L44 78 Z" fill="#060D18"/>
  <circle cx="74" cy="56" r="6" fill="#EF4444" opacity="0.85"/>
  <circle cx="93" cy="56" r="6" fill="#F59E0B" opacity="0.85"/>
  <circle cx="112" cy="56" r="6" fill="#22C55E" opacity="0.85"/>
  <rect x="240" y="45" width="280" height="22" rx="11" fill="#0A1120"/>
  <text x="380" y="61" text-anchor="middle" fill="#94A3B8" font-size="10" font-family="monospace">fintrack.io / trading / BTC-USDT</text>

  <!-- Top nav bar -->
  <rect x="44" y="78" width="712" height="36" fill="#0A1120"/>
  <text x="64" y="101" fill="#F59E0B" font-size="11" font-weight="bold" font-family="Arial,sans-serif">⚡ FinTrack</text>
  <!-- Ticker strip -->
  <rect x="140" y="86" width="76" height="20" rx="4" fill="#1A2E1A"/>
  <text x="150" y="100" fill="#22C55E" font-size="9" font-family="monospace">BTC  $67,240</text>
  <rect x="222" y="86" width="76" height="20" rx="4" fill="#2E1A1A"/>
  <text x="232" y="100" fill="#EF4444" font-size="9" font-family="monospace">ETH   $3,521</text>
  <rect x="304" y="86" width="76" height="20" rx="4" fill="#1A2E1A"/>
  <text x="314" y="100" fill="#22C55E" font-size="9" font-family="monospace">SOL    $182</text>
  <rect x="660" y="88" width="82" height="20" rx="6" fill="#F59E0B"/>
  <text x="701" y="101" text-anchor="middle" fill="#000" font-size="9" font-weight="bold" font-family="Arial,sans-serif">▶ Place Order</text>

  <!-- Left: Chart area (65%) -->
  <rect x="44" y="114" width="464" height="346" fill="#0B1018"/>
  <!-- Chart header -->
  <rect x="44" y="114" width="464" height="30" fill="#0F1624"/>
  <text x="58" y="133" fill="#FFF" font-size="10" font-weight="bold" font-family="monospace">BTC/USDT</text>
  <text x="130" y="133" fill="#22C55E" font-size="10" font-family="monospace">$67,240.50</text>
  <text x="220" y="133" fill="#22C55E" font-size="9" font-family="monospace">▲ +2.34%</text>
  <text x="290" y="133" fill="#64748B" font-size="9" font-family="monospace">Vol: 1.2B</text>
  <text x="360" y="133" fill="#64748B" font-size="9" font-family="monospace">H: 68,100</text>
  <text x="430" y="133" fill="#64748B" font-size="9" font-family="monospace">L: 65,800</text>

  <!-- Y-axis labels -->
  <text x="48" y="175" fill="#475569" font-size="8" font-family="monospace">68,500</text>
  <text x="48" y="225" fill="#475569" font-size="8" font-family="monospace">67,500</text>
  <text x="48" y="275" fill="#475569" font-size="8" font-family="monospace">66,500</text>
  <text x="48" y="325" fill="#475569" font-size="8" font-family="monospace">65,500</text>
  <text x="48" y="375" fill="#475569" font-size="8" font-family="monospace">64,500</text>

  <!-- Grid lines -->
  <line x1="88" y1="170" x2="504" y2="170" stroke="#1E2D40" stroke-width="1"/>
  <line x1="88" y1="220" x2="504" y2="220" stroke="#1E2D40" stroke-width="1"/>
  <line x1="88" y1="270" x2="504" y2="270" stroke="#1E2D40" stroke-width="1"/>
  <line x1="88" y1="320" x2="504" y2="320" stroke="#1E2D40" stroke-width="1"/>
  <line x1="88" y1="370" x2="504" y2="370" stroke="#1E2D40" stroke-width="1"/>

  <!-- Candlesticks (simplified) -->
  <!-- Red candle 1 -->
  <rect x="95" y="205" width="18" height="40" fill="#EF4444" opacity="0.85"/>
  <line x1="104" y1="195" x2="104" y2="205" stroke="#EF4444" stroke-width="1.5"/>
  <line x1="104" y1="245" x2="104" y2="260" stroke="#EF4444" stroke-width="1.5"/>
  <!-- Green candle 2 -->
  <rect x="120" y="215" width="18" height="35" fill="#22C55E" opacity="0.85"/>
  <line x1="129" y1="205" x2="129" y2="215" stroke="#22C55E" stroke-width="1.5"/>
  <line x1="129" y1="250" x2="129" y2="262" stroke="#22C55E" stroke-width="1.5"/>
  <!-- Red candle 3 -->
  <rect x="145" y="230" width="18" height="45" fill="#EF4444" opacity="0.85"/>
  <line x1="154" y1="220" x2="154" y2="230" stroke="#EF4444" stroke-width="1.5"/>
  <line x1="154" y1="275" x2="154" y2="285" stroke="#EF4444" stroke-width="1.5"/>
  <!-- Green candle 4 -->
  <rect x="170" y="210" width="18" height="50" fill="#22C55E" opacity="0.85"/>
  <line x1="179" y1="198" x2="179" y2="210" stroke="#22C55E" stroke-width="1.5"/>
  <line x1="179" y1="260" x2="179" y2="272" stroke="#22C55E" stroke-width="1.5"/>
  <!-- Green candle 5 (big) -->
  <rect x="195" y="190" width="18" height="70" fill="#22C55E" opacity="0.9"/>
  <line x1="204" y1="178" x2="204" y2="190" stroke="#22C55E" stroke-width="1.5"/>
  <line x1="204" y1="260" x2="204" y2="275" stroke="#22C55E" stroke-width="1.5"/>
  <!-- Red candle 6 -->
  <rect x="220" y="205" width="18" height="40" fill="#EF4444" opacity="0.85"/>
  <line x1="229" y1="195" x2="229" y2="205" stroke="#EF4444" stroke-width="1.5"/>
  <line x1="229" y1="245" x2="229" y2="258" stroke="#EF4444" stroke-width="1.5"/>
  <!-- Green candle 7 -->
  <rect x="245" y="195" width="18" height="55" fill="#22C55E" opacity="0.85"/>
  <line x1="254" y1="182" x2="254" y2="195" stroke="#22C55E" stroke-width="1.5"/>
  <line x1="254" y1="250" x2="254" y2="263" stroke="#22C55E" stroke-width="1.5"/>
  <!-- Red candle 8 -->
  <rect x="270" y="215" width="18" height="35" fill="#EF4444" opacity="0.85"/>
  <line x1="279" y1="206" x2="279" y2="215" stroke="#EF4444" stroke-width="1.5"/>
  <line x1="279" y1="250" x2="279" y2="260" stroke="#EF4444" stroke-width="1.5"/>
  <!-- Green candle 9 (big) -->
  <rect x="295" y="178" width="18" height="75" fill="#22C55E" opacity="0.9"/>
  <line x1="304" y1="165" x2="304" y2="178" stroke="#22C55E" stroke-width="1.5"/>
  <line x1="304" y1="253" x2="304" y2="268" stroke="#22C55E" stroke-width="1.5"/>
  <!-- Red candle 10 -->
  <rect x="320" y="195" width="18" height="45" fill="#EF4444" opacity="0.85"/>
  <line x1="329" y1="183" x2="329" y2="195" stroke="#EF4444" stroke-width="1.5"/>
  <line x1="329" y1="240" x2="329" y2="252" stroke="#EF4444" stroke-width="1.5"/>
  <!-- Green candle 11 -->
  <rect x="345" y="182" width="18" height="60" fill="#22C55E" opacity="0.9"/>
  <line x1="354" y1="170" x2="354" y2="182" stroke="#22C55E" stroke-width="1.5"/>
  <line x1="354" y1="242" x2="354" y2="255" stroke="#22C55E" stroke-width="1.5"/>
  <!-- Green candle 12 (latest, highlighted) -->
  <rect x="370" y="168" width="18" height="68" fill="#22C55E" opacity="1"/>
  <line x1="379" y1="154" x2="379" y2="168" stroke="#22C55E" stroke-width="2"/>
  <line x1="379" y1="236" x2="379" y2="250" stroke="#22C55E" stroke-width="2"/>
  <!-- Price line -->
  <line x1="388" y1="200" x2="508" y2="200" stroke="#F59E0B" stroke-width="1" stroke-dasharray="4 3" opacity="0.7"/>
  <rect x="400" y="195" width="55" height="14" rx="3" fill="#F59E0B" opacity="0.15"/>
  <text x="427" y="205" text-anchor="middle" fill="#F59E0B" font-size="8" font-family="monospace">67,240.50</text>

  <!-- Volume bars at bottom of chart -->
  <rect x="95" y="400" width="16" height="18" fill="#EF4444" opacity="0.4"/>
  <rect x="120" y="395" width="16" height="23" fill="#22C55E" opacity="0.4"/>
  <rect x="145" y="398" width="16" height="20" fill="#EF4444" opacity="0.4"/>
  <rect x="170" y="390" width="16" height="28" fill="#22C55E" opacity="0.4"/>
  <rect x="195" y="385" width="16" height="33" fill="#22C55E" opacity="0.5"/>
  <rect x="220" y="397" width="16" height="21" fill="#EF4444" opacity="0.4"/>
  <rect x="245" y="388" width="16" height="30" fill="#22C55E" opacity="0.5"/>
  <rect x="270" y="399" width="16" height="19" fill="#EF4444" opacity="0.4"/>
  <rect x="295" y="382" width="16" height="36" fill="#22C55E" opacity="0.5"/>
  <rect x="320" y="393" width="16" height="25" fill="#EF4444" opacity="0.4"/>
  <rect x="345" y="384" width="16" height="34" fill="#22C55E" opacity="0.5"/>
  <rect x="370" y="378" width="16" height="40" fill="#22C55E" opacity="0.65"/>

  <!-- Right: Order book -->
  <rect x="508" y="114" width="248" height="346" fill="#080E18"/>
  <rect x="508" y="114" width="248" height="28" fill="#0D1624"/>
  <text x="520" y="132" fill="#94A3B8" font-size="10" font-weight="bold" font-family="monospace">Order Book</text>
  <text x="684" y="132" text-anchor="end" fill="#475569" font-size="9" font-family="monospace">Spread: $12.50</text>

  <!-- Ask header -->
  <text x="520" y="158" fill="#94A3B8" font-size="8" font-family="monospace">Price (USDT)</text>
  <text x="660" y="158" text-anchor="end" fill="#94A3B8" font-size="8" font-family="monospace">Amount</text>
  <text x="748" y="158" text-anchor="end" fill="#94A3B8" font-size="8" font-family="monospace">Total</text>

  <!-- Asks (red) -->
  <rect x="508" y="163" width="248" height="14" fill="#EF4444" opacity="0.06"/>
  <text x="520" y="173" fill="#EF4444" font-size="9" font-family="monospace">67,352.00</text>
  <text x="660" y="173" text-anchor="end" fill="#CBD5E1" font-size="9" font-family="monospace">0.184</text>
  <text x="748" y="173" text-anchor="end" fill="#475569" font-size="9" font-family="monospace">12,392</text>

  <rect x="508" y="177" width="248" height="14" fill="#EF4444" opacity="0.08"/>
  <text x="520" y="187" fill="#EF4444" font-size="9" font-family="monospace">67,340.50</text>
  <text x="660" y="187" text-anchor="end" fill="#CBD5E1" font-size="9" font-family="monospace">0.521</text>
  <text x="748" y="187" text-anchor="end" fill="#475569" font-size="9" font-family="monospace">35,126</text>

  <rect x="508" y="191" width="248" height="14" fill="#EF4444" opacity="0.10"/>
  <text x="520" y="201" fill="#EF4444" font-size="9" font-family="monospace">67,326.00</text>
  <text x="660" y="201" text-anchor="end" fill="#CBD5E1" font-size="9" font-family="monospace">1.240</text>
  <text x="748" y="201" text-anchor="end" fill="#475569" font-size="9" font-family="monospace">83,485</text>

  <rect x="508" y="205" width="248" height="14" fill="#EF4444" opacity="0.13"/>
  <text x="520" y="215" fill="#EF4444" font-size="9" font-family="monospace">67,314.00</text>
  <text x="660" y="215" text-anchor="end" fill="#CBD5E1" font-size="9" font-family="monospace">2.110</text>
  <text x="748" y="215" text-anchor="end" fill="#475569" font-size="9" font-family="monospace">141,993</text>

  <!-- Mid price -->
  <rect x="508" y="222" width="248" height="18" fill="#1A2840"/>
  <text x="632" y="234" text-anchor="middle" fill="#F59E0B" font-size="10" font-weight="bold" font-family="monospace">67,240.50 ▲</text>

  <!-- Bids (green) -->
  <rect x="508" y="240" width="248" height="14" fill="#22C55E" opacity="0.13"/>
  <text x="520" y="250" fill="#22C55E" font-size="9" font-family="monospace">67,228.00</text>
  <text x="660" y="250" text-anchor="end" fill="#CBD5E1" font-size="9" font-family="monospace">1.845</text>
  <text x="748" y="250" text-anchor="end" fill="#475569" font-size="9" font-family="monospace">123,974</text>

  <rect x="508" y="254" width="248" height="14" fill="#22C55E" opacity="0.10"/>
  <text x="520" y="264" fill="#22C55E" font-size="9" font-family="monospace">67,210.00</text>
  <text x="660" y="264" text-anchor="end" fill="#CBD5E1" font-size="9" font-family="monospace">0.920</text>
  <text x="748" y="264" text-anchor="end" fill="#475569" font-size="9" font-family="monospace">61,833</text>

  <rect x="508" y="268" width="248" height="14" fill="#22C55E" opacity="0.08"/>
  <text x="520" y="278" fill="#22C55E" font-size="9" font-family="monospace">67,195.50</text>
  <text x="660" y="278" text-anchor="end" fill="#CBD5E1" font-size="9" font-family="monospace">0.402</text>
  <text x="748" y="278" text-anchor="end" fill="#475569" font-size="9" font-family="monospace">27,032</text>

  <rect x="508" y="282" width="248" height="14" fill="#22C55E" opacity="0.06"/>
  <text x="520" y="292" fill="#22C55E" font-size="9" font-family="monospace">67,178.00</text>
  <text x="660" y="292" text-anchor="end" fill="#CBD5E1" font-size="9" font-family="monospace">0.166</text>
  <text x="748" y="292" text-anchor="end" fill="#475569" font-size="9" font-family="monospace">11,162</text>

  <!-- Trade execution panel -->
  <rect x="508" y="310" width="248" height="150" fill="#0A1220"/>
  <rect x="508" y="310" width="248" height="1" fill="#1E3050"/>
  <text x="520" y="328" fill="#94A3B8" font-size="9" font-weight="bold" font-family="monospace">Quick Trade</text>
  <!-- Buy/Sell toggle -->
  <rect x="516" y="334" width="112" height="22" rx="4" fill="#22C55E" opacity="0.9"/>
  <text x="572" y="349" text-anchor="middle" fill="#FFF" font-size="9" font-weight="bold" font-family="monospace">BUY</text>
  <rect x="630" y="334" width="112" height="22" rx="4" fill="#1A1A2A"/>
  <text x="686" y="349" text-anchor="middle" fill="#475569" font-size="9" font-weight="bold" font-family="monospace">SELL</text>
  <!-- Amount input -->
  <rect x="516" y="362" width="226" height="22" rx="4" fill="#0D1624" stroke="#1E3050" stroke-width="1"/>
  <text x="526" y="377" fill="#94A3B8" font-size="9" font-family="monospace">Amount (BTC)</text>
  <text x="732" y="377" text-anchor="end" fill="#FFF" font-size="9" font-family="monospace">0.5</text>
  <!-- Total -->
  <rect x="516" y="390" width="226" height="22" rx="4" fill="#0D1624" stroke="#1E3050" stroke-width="1"/>
  <text x="526" y="405" fill="#94A3B8" font-size="9" font-family="monospace">Total (USDT)</text>
  <text x="732" y="405" text-anchor="end" fill="#F59E0B" font-size="9" font-weight="bold" font-family="monospace">33,620.25</text>
  <!-- Execute btn -->
  <rect x="516" y="418" width="226" height="26" rx="6" fill="#22C55E"/>
  <text x="629" y="435" text-anchor="middle" fill="#FFF" font-size="9" font-weight="bold" font-family="monospace">Execute Buy Order</text>

  <!-- Stats bar at bottom -->
  <rect x="44" y="434" width="712" height="26" fill="#060D18"/>
  <text x="58" y="450" fill="#475569" font-size="8" font-family="monospace">50,000+ Daily Traders</text>
  <text x="220" y="450" fill="#22C55E" font-size="8" font-family="monospace">● 99.99% Uptime</text>
  <text x="370" y="450" fill="#F59E0B" font-size="8" font-family="monospace">⚡ &lt;100ms Execution</text>
  <text x="540" y="450" fill="#475569" font-size="8" font-family="monospace">Real-time • Microservices • Go + ScyllaDB</text>
</svg>
