<svg viewBox="0 0 800 500" xmlns="http://www.w3.org/2000/svg">
  <defs>
    <linearGradient id="bg" x1="0" y1="0" x2="800" y2="500" gradientUnits="userSpaceOnUse">
      <stop offset="0%" stop-color="#1E1B4B"/><stop offset="100%" stop-color="#2D2060"/>
    </linearGradient>
    <filter id="sh"><feDropShadow dx="0" dy="10" stdDeviation="18" flood-color="#000" flood-opacity="0.45"/></filter>
  </defs>
  <rect width="800" height="500" fill="url(#bg)"/>
  <circle cx="400" cy="80" r="220" fill="#8B5CF6" opacity="0.08"/>
  <circle cx="700" cy="420" r="160" fill="#6366F1" opacity="0.05"/>

  <!-- Browser frame -->
  <rect x="44" y="34" width="712" height="426" rx="12" fill="#FFFFFF" filter="url(#sh)"/>
  <path d="M44 46 Q44 34 56 34 L744 34 Q756 34 756 46 L756 78 L44 78 Z" fill="#1E1B4B"/>
  <circle cx="74" cy="56" r="6" fill="#EF4444" opacity="0.85"/>
  <circle cx="93" cy="56" r="6" fill="#F59E0B" opacity="0.85"/>
  <circle cx="112" cy="56" r="6" fill="#22C55E" opacity="0.85"/>
  <rect x="240" y="45" width="280" height="22" rx="11" fill="#16133A"/>
  <text x="380" y="61" text-anchor="middle" fill="#94A3B8" font-size="10" font-family="Arial,sans-serif">learnai.edu / student / dashboard</text>

  <!-- Header -->
  <rect x="44" y="78" width="712" height="44" fill="#F5F3FF"/>
  <text x="64" y="105" fill="#6D28D9" font-size="13" font-weight="bold" font-family="Arial,sans-serif">🧠 LearnAI</text>
  <text x="160" y="105" fill="#64748B" font-size="10" font-family="Arial,sans-serif">My Learning</text>
  <text x="242" y="105" fill="#64748B" font-size="10" font-family="Arial,sans-serif">Courses</text>
  <text x="306" y="105" fill="#64748B" font-size="10" font-family="Arial,sans-serif">Progress</text>
  <text x="372" y="105" fill="#64748B" font-size="10" font-family="Arial,sans-serif">AI Coach</text>
  <rect x="560" y="88" width="120" height="22" rx="6" fill="#EDE9FE"/>
  <text x="620" y="103" text-anchor="middle" fill="#7C3AED" font-size="9" font-weight="bold" font-family="Arial,sans-serif">⚡ AI Adapting...</text>
  <rect x="688" y="88" width="50" height="22" rx="6" fill="#8B5CF6"/>
  <text x="713" y="103" text-anchor="middle" fill="#FFF" font-size="9" font-weight="bold" font-family="Arial,sans-serif">Ask AI</text>

  <!-- Left: Course outline -->
  <rect x="44" y="122" width="196" height="338" fill="#F5F3FF"/>
  <rect x="44" y="122" width="196" height="28" fill="#EDE9FE"/>
  <text x="58" y="141" fill="#6D28D9" font-size="10" font-weight="bold" font-family="Arial,sans-serif">Python for ML — Lvl 3</text>
  <!-- Modules -->
  <text x="58" y="164" fill="#7C3AED" font-size="8" font-weight="bold" font-family="Arial,sans-serif">MODULE 1 — DONE</text>
  <rect x="52" y="170" width="180" height="28" rx="6" fill="#DDD6FE"/>
  <text x="62" y="182" fill="#5B21B6" font-size="9" font-weight="bold" font-family="Arial,sans-serif">✓ Intro to Python</text>
  <text x="62" y="194" fill="#7C3AED" font-size="8" font-family="Arial,sans-serif">100% • 45 min</text>

  <text x="58" y="212" fill="#7C3AED" font-size="8" font-weight="bold" font-family="Arial,sans-serif">MODULE 2 — DONE</text>
  <rect x="52" y="218" width="180" height="28" rx="6" fill="#DDD6FE"/>
  <text x="62" y="230" fill="#5B21B6" font-size="9" font-weight="bold" font-family="Arial,sans-serif">✓ Data Structures</text>
  <text x="62" y="242" fill="#7C3AED" font-size="8" font-family="Arial,sans-serif">100% • 62 min</text>

  <text x="58" y="260" fill="#8B5CF6" font-size="8" font-weight="bold" font-family="Arial,sans-serif">MODULE 3 — ACTIVE</text>
  <rect x="52" y="266" width="180" height="28" rx="6" fill="#8B5CF6"/>
  <text x="62" y="278" fill="#FFF" font-size="9" font-weight="bold" font-family="Arial,sans-serif">▶ NumPy &amp; Pandas</text>
  <text x="62" y="290" fill="#EDE9FE" font-size="8" font-family="Arial,sans-serif">68% • In Progress</text>

  <text x="58" y="308" fill="#9CA3AF" font-size="8" font-weight="bold" font-family="Arial,sans-serif">MODULE 4 — LOCKED</text>
  <rect x="52" y="314" width="180" height="28" rx="6" fill="#FFF" stroke="#E2E8F0" stroke-width="1"/>
  <text x="62" y="326" fill="#9CA3AF" font-size="9" font-family="Arial,sans-serif">🔒 Scikit-learn Basics</text>
  <text x="62" y="338" fill="#9CA3AF" font-size="8" font-family="Arial,sans-serif">Unlocks after Mod 3</text>

  <rect x="52" y="350" width="180" height="28" rx="6" fill="#FFF" stroke="#E2E8F0" stroke-width="1"/>
  <text x="62" y="326" fill="#9CA3AF" font-size="9" font-family="Arial,sans-serif" dy="36">🔒 Neural Networks</text>
  <text x="62" y="338" fill="#9CA3AF" font-size="8" font-family="Arial,sans-serif" dy="36">Advanced track</text>

  <!-- Streak -->
  <rect x="52" y="424" width="180" height="28" rx="8" fill="#EDE9FE" stroke="#DDD6FE" stroke-width="1"/>
  <text x="142" y="437" text-anchor="middle" fill="#7C3AED" font-size="9" font-weight="bold" font-family="Arial,sans-serif">🔥 12-Day Streak!</text>
  <text x="142" y="449" text-anchor="middle" fill="#8B5CF6" font-size="8" font-family="Arial,sans-serif">Keep it going</text>

  <!-- Center: Lesson area -->
  <rect x="240" y="122" width="324" height="338" fill="#FFF"/>
  <rect x="240" y="122" width="324" height="28" fill="#F5F3FF"/>
  <text x="254" y="141" fill="#6D28D9" font-size="10" font-weight="bold" font-family="Arial,sans-serif">NumPy Array Operations</text>
  <text x="556" y="141" text-anchor="end" fill="#8B5CF6" font-size="9" font-family="Arial,sans-serif">Lesson 3 of 5</text>

  <!-- Progress bar -->
  <rect x="240" y="150" width="324" height="6" fill="#EDE9FE"/>
  <rect x="240" y="150" width="220" height="6" fill="#8B5CF6"/>

  <!-- AI Adaptation badge -->
  <rect x="250" y="163" width="196" height="22" rx="6" fill="#EDE9FE"/>
  <text x="254" y="178" fill="#7C3AED" font-size="9" font-family="Arial,sans-serif">🤖 AI adapted this lesson to your pace</text>
  <!-- Lesson content -->
  <rect x="250" y="192" width="304" height="82" rx="6" fill="#1E1B4B"/>
  <text x="262" y="208" fill="#C4B5FD" font-size="8" font-family="monospace">import numpy as np</text>
  <text x="262" y="222" fill="#A78BFA" font-size="8" font-family="monospace">arr = np.array([1, 2, 3, 4, 5])</text>
  <text x="262" y="236" fill="#A78BFA" font-size="8" font-family="monospace">print(arr.mean())  # → 3.0</text>
  <text x="262" y="250" fill="#A78BFA" font-size="8" font-family="monospace">print(arr.shape)   # → (5,)</text>
  <text x="262" y="264" fill="#22C55E" font-size="8" font-family="monospace">✓ Output: 3.0 / (5,)</text>

  <!-- AI hint box -->
  <rect x="250" y="280" width="304" height="48" rx="8" fill="#F5F3FF" stroke="#DDD6FE" stroke-width="1"/>
  <circle cx="264" cy="296" r="8" fill="#8B5CF6"/>
  <text x="264" y="300" text-anchor="middle" fill="#FFF" font-size="8" font-weight="bold" font-family="Arial,sans-serif">AI</text>
  <text x="278" y="293" fill="#374151" font-size="9" font-weight="bold" font-family="Arial,sans-serif">Smart Hint</text>
  <text x="278" y="307" fill="#6B7280" font-size="9" font-family="Arial,sans-serif">You struggled with indexing last week.</text>
  <text x="278" y="320" fill="#6B7280" font-size="9" font-family="Arial,sans-serif">Try: arr[2:4] to slice elements 3 &amp; 4.</text>

  <!-- Quick quiz -->
  <rect x="250" y="336" width="304" height="114" rx="8" fill="#FFF" stroke="#E2E8F0" stroke-width="1"/>
  <text x="260" y="354" fill="#374151" font-size="9" font-weight="bold" font-family="Arial,sans-serif">Quick Check</text>
  <text x="544" y="354" text-anchor="end" fill="#8B5CF6" font-size="8" font-family="Arial,sans-serif">AI-adjusted difficulty</text>
  <text x="260" y="372" fill="#374151" font-size="9" font-family="Arial,sans-serif">What does arr.reshape(5,1) return?</text>
  <rect x="260" y="380" width="130" height="18" rx="5" fill="#EDE9FE"/>
  <text x="325" y="392" text-anchor="middle" fill="#7C3AED" font-size="8" font-family="Arial,sans-serif">○ A 5-row column vector</text>
  <rect x="398" y="380" width="146" height="18" rx="5" fill="#FFF" stroke="#E2E8F0" stroke-width="1"/>
  <text x="471" y="392" text-anchor="middle" fill="#9CA3AF" font-size="8" font-family="Arial,sans-serif">○ A 1×5 row matrix</text>
  <rect x="260" y="404" width="130" height="18" rx="5" fill="#FFF" stroke="#E2E8F0" stroke-width="1"/>
  <text x="325" y="416" text-anchor="middle" fill="#9CA3AF" font-size="8" font-family="Arial,sans-serif">○ Flattens the array</text>
  <rect x="398" y="404" width="146" height="18" rx="5" fill="#FFF" stroke="#E2E8F0" stroke-width="1"/>
  <text x="471" y="416" text-anchor="middle" fill="#9CA3AF" font-size="8" font-family="Arial,sans-serif">○ Raises an error</text>
  <rect x="398" y="428" width="146" height="18" rx="6" fill="#8B5CF6"/>
  <text x="471" y="440" text-anchor="middle" fill="#FFF" font-size="8" font-weight="bold" font-family="Arial,sans-serif">Submit Answer →</text>

  <!-- Right: Analytics -->
  <rect x="564" y="122" width="192" height="338" fill="#F5F3FF"/>
  <rect x="564" y="122" width="192" height="28" fill="#EDE9FE"/>
  <text x="578" y="141" fill="#6D28D9" font-size="10" font-weight="bold" font-family="Arial,sans-serif">My Progress</text>
  <!-- Overall score -->
  <rect x="572" y="158" width="176" height="50" rx="8" fill="#FFF" stroke="#DDD6FE" stroke-width="1"/>
  <text x="660" y="175" text-anchor="middle" fill="#6D28D9" font-size="20" font-weight="bold" font-family="Arial,sans-serif">87%</text>
  <text x="660" y="192" text-anchor="middle" fill="#7C3AED" font-size="8" font-family="Arial,sans-serif">Overall Mastery Score</text>
  <text x="660" y="204" text-anchor="middle" fill="#22C55E" font-size="8" font-family="Arial,sans-serif">▲ +35% vs class avg</text>
  <!-- Skill bars -->
  <text x="578" y="224" fill="#6B7280" font-size="8" font-weight="bold" font-family="Arial,sans-serif">SKILL BREAKDOWN</text>
  <text x="578" y="242" fill="#374151" font-size="9" font-family="Arial,sans-serif">Arrays</text>
  <rect x="620" y="234" width="120" height="8" rx="4" fill="#DDD6FE"/>
  <rect x="620" y="234" width="108" height="8" rx="4" fill="#8B5CF6"/>
  <text x="748" y="242" text-anchor="end" fill="#7C3AED" font-size="8" font-family="Arial,sans-serif">90%</text>
  <text x="578" y="258" fill="#374151" font-size="9" font-family="Arial,sans-serif">Functions</text>
  <rect x="620" y="250" width="120" height="8" rx="4" fill="#DDD6FE"/>
  <rect x="620" y="250" width="86" height="8" rx="4" fill="#8B5CF6"/>
  <text x="748" y="258" text-anchor="end" fill="#7C3AED" font-size="8" font-family="Arial,sans-serif">72%</text>
  <text x="578" y="274" fill="#374151" font-size="9" font-family="Arial,sans-serif">Loops</text>
  <rect x="620" y="266" width="120" height="8" rx="4" fill="#DDD6FE"/>
  <rect x="620" y="266" width="96" height="8" rx="4" fill="#8B5CF6"/>
  <text x="748" y="274" text-anchor="end" fill="#7C3AED" font-size="8" font-family="Arial,sans-serif">80%</text>
  <text x="578" y="290" fill="#374151" font-size="9" font-family="Arial,sans-serif">NumPy</text>
  <rect x="620" y="282" width="120" height="8" rx="4" fill="#DDD6FE"/>
  <rect x="620" y="282" width="68" height="8" rx="4" fill="#8B5CF6" opacity="0.8"/>
  <text x="748" y="290" text-anchor="end" fill="#7C3AED" font-size="8" font-family="Arial,sans-serif">56%</text>

  <!-- Weekly activity -->
  <line x1="572" y1="302" x2="748" y2="302" stroke="#DDD6FE" stroke-width="1"/>
  <text x="578" y="318" fill="#6B7280" font-size="8" font-weight="bold" font-family="Arial,sans-serif">WEEKLY ACTIVITY</text>
  <rect x="578" y="342" width="16" height="24" rx="3" fill="#8B5CF6" opacity="0.5"/>
  <rect x="600" y="334" width="16" height="32" rx="3" fill="#8B5CF6" opacity="0.65"/>
  <rect x="622" y="324" width="16" height="42" rx="3" fill="#8B5CF6" opacity="0.8"/>
  <rect x="644" y="328" width="16" height="38" rx="3" fill="#8B5CF6" opacity="0.7"/>
  <rect x="666" y="318" width="16" height="48" rx="3" fill="#7C3AED"/>
  <rect x="688" y="322" width="16" height="44" rx="3" fill="#7C3AED" opacity="0.9"/>
  <rect x="710" y="314" width="16" height="52" rx="3" fill="#6D28D9"/>
  <text x="578" y="376" fill="#9CA3AF" font-size="7" font-family="Arial,sans-serif">Mon</text>
  <text x="600" y="376" fill="#9CA3AF" font-size="7" font-family="Arial,sans-serif">Tue</text>
  <text x="622" y="376" fill="#9CA3AF" font-size="7" font-family="Arial,sans-serif">Wed</text>
  <text x="644" y="376" fill="#9CA3AF" font-size="7" font-family="Arial,sans-serif">Thu</text>
  <text x="666" y="376" fill="#9CA3AF" font-size="7" font-family="Arial,sans-serif">Fri</text>
  <text x="688" y="376" fill="#9CA3AF" font-size="7" font-family="Arial,sans-serif">Sat</text>
  <text x="710" y="376" fill="#8B5CF6" font-size="7" font-weight="bold" font-family="Arial,sans-serif">Sun</text>

  <!-- Platform stats -->
  <rect x="572" y="384" width="176" height="68" rx="8" fill="#EDE9FE"/>
  <text x="660" y="400" text-anchor="middle" fill="#6D28D9" font-size="9" font-weight="bold" font-family="Arial,sans-serif">Platform Impact</text>
  <text x="578" y="416" fill="#374151" font-size="8" font-family="Arial,sans-serif">Schools adopted</text>
  <text x="748" y="416" text-anchor="end" fill="#7C3AED" font-size="8" font-weight="bold" font-family="Arial,sans-serif">500</text>
  <text x="578" y="430" fill="#374151" font-size="8" font-family="Arial,sans-serif">Test score improvement</text>
  <text x="748" y="430" text-anchor="end" fill="#22C55E" font-size="8" font-weight="bold" font-family="Arial,sans-serif">+35%</text>
  <text x="578" y="444" fill="#374151" font-size="8" font-family="Arial,sans-serif">EdTech Digest ranking</text>
  <text x="748" y="444" text-anchor="end" fill="#F59E0B" font-size="8" font-weight="bold" font-family="Arial,sans-serif">Top 10</text>
</svg>
