<svg viewBox="0 0 800 500" xmlns="http://www.w3.org/2000/svg">
  <defs>
    <linearGradient id="bg" x1="0" y1="0" x2="800" y2="500" gradientUnits="userSpaceOnUse">
      <stop offset="0%" stop-color="#0A1628"/><stop offset="100%" stop-color="#0C2040"/>
    </linearGradient>
    <filter id="sh"><feDropShadow dx="0" dy="10" stdDeviation="18" flood-color="#000" flood-opacity="0.45"/></filter>
  </defs>
  <rect width="800" height="500" fill="url(#bg)"/>
  <circle cx="400" cy="80" r="200" fill="#0EA5E9" opacity="0.06"/>
  <circle cx="100" cy="400" r="150" fill="#10B981" opacity="0.04"/>

  <!-- Browser frame -->
  <rect x="44" y="34" width="712" height="426" rx="12" fill="#FFFFFF" filter="url(#sh)"/>
  <path d="M44 46 Q44 34 56 34 L744 34 Q756 34 756 46 L756 78 L44 78 Z" fill="#0A1628"/>
  <circle cx="74" cy="56" r="6" fill="#EF4444" opacity="0.85"/>
  <circle cx="93" cy="56" r="6" fill="#F59E0B" opacity="0.85"/>
  <circle cx="112" cy="56" r="6" fill="#22C55E" opacity="0.85"/>
  <rect x="240" y="45" width="280" height="22" rx="11" fill="#0C1F38"/>
  <text x="380" y="61" text-anchor="middle" fill="#94A3B8" font-size="10" font-family="Arial,sans-serif">mediconnect.health / dashboard</text>

  <!-- Header bar -->
  <rect x="44" y="78" width="712" height="44" fill="#EFF6FF"/>
  <text x="64" y="105" fill="#1E40AF" font-size="13" font-weight="bold" font-family="Arial,sans-serif">🏥 MediConnect</text>
  <text x="200" y="105" fill="#64748B" font-size="10" font-family="Arial,sans-serif">Dashboard</text>
  <text x="270" y="105" fill="#64748B" font-size="10" font-family="Arial,sans-serif">Patients</text>
  <text x="342" y="105" fill="#64748B" font-size="10" font-family="Arial,sans-serif">Appointments</text>
  <text x="440" y="105" fill="#64748B" font-size="10" font-family="Arial,sans-serif">EHR Records</text>
  <rect x="610" y="88" width="60" height="22" rx="6" fill="#DCFCE7"/>
  <text x="640" y="103" text-anchor="middle" fill="#16A34A" font-size="9" font-weight="bold" font-family="Arial,sans-serif">● HIPAA</text>
  <rect x="678" y="88" width="60" height="22" rx="6" fill="#0EA5E9"/>
  <text x="708" y="103" text-anchor="middle" fill="#FFF" font-size="9" font-weight="bold" font-family="Arial,sans-serif">+ New Call</text>

  <!-- Left: Upcoming appointments -->
  <rect x="44" y="122" width="198" height="338" fill="#F8FAFC"/>
  <rect x="44" y="122" width="198" height="28" fill="#EFF6FF"/>
  <text x="58" y="141" fill="#1E40AF" font-size="10" font-weight="bold" font-family="Arial,sans-serif">Today's Schedule</text>
  <!-- Appointment items -->
  <rect x="52" y="158" width="182" height="52" rx="6" fill="#FFF" stroke="#BFDBFE" stroke-width="1.5"/>
  <circle cx="68" cy="180" r="10" fill="#DBEAFE"/>
  <text x="68" y="184" text-anchor="middle" fill="#2563EB" font-size="9" font-weight="bold" font-family="Arial,sans-serif">AK</text>
  <text x="84" y="174" fill="#111827" font-size="9" font-weight="bold" font-family="Arial,sans-serif">Anna Klein</text>
  <text x="84" y="186" fill="#6B7280" font-size="8" font-family="Arial,sans-serif">10:00 AM • Video</text>
  <text x="84" y="198" fill="#0EA5E9" font-size="8" font-weight="bold" font-family="Arial,sans-serif">● Live Now</text>
  <rect x="52" y="216" width="182" height="52" rx="6" fill="#FFF" stroke="#E2E8F0" stroke-width="1"/>
  <circle cx="68" cy="238" r="10" fill="#D1FAE5"/>
  <text x="68" y="242" text-anchor="middle" fill="#065F46" font-size="9" font-weight="bold" font-family="Arial,sans-serif">RB</text>
  <text x="84" y="232" fill="#111827" font-size="9" font-weight="bold" font-family="Arial,sans-serif">Robert Brown</text>
  <text x="84" y="244" fill="#6B7280" font-size="8" font-family="Arial,sans-serif">11:30 AM • Video</text>
  <text x="84" y="256" fill="#9CA3AF" font-size="8" font-family="Arial,sans-serif">Scheduled</text>
  <rect x="52" y="274" width="182" height="52" rx="6" fill="#FFF" stroke="#E2E8F0" stroke-width="1"/>
  <circle cx="68" cy="296" r="10" fill="#FEF3C7"/>
  <text x="68" y="300" text-anchor="middle" fill="#D97706" font-size="9" font-weight="bold" font-family="Arial,sans-serif">SM</text>
  <text x="84" y="290" fill="#111827" font-size="9" font-weight="bold" font-family="Arial,sans-serif">Sarah Mills</text>
  <text x="84" y="302" fill="#6B7280" font-size="8" font-family="Arial,sans-serif">1:00 PM • Chat</text>
  <text x="84" y="314" fill="#9CA3AF" font-size="8" font-family="Arial,sans-serif">Scheduled</text>
  <!-- Stats -->
  <rect x="52" y="336" width="182" height="116" rx="8" fill="#EFF6FF"/>
  <text x="58" y="356" fill="#1E40AF" font-size="9" font-weight="bold" font-family="Arial,sans-serif">Clinic Stats</text>
  <text x="58" y="374" fill="#374151" font-size="8" font-family="Arial,sans-serif">Active clinics</text>
  <text x="220" y="374" text-anchor="end" fill="#1D4ED8" font-size="8" font-weight="bold" font-family="Arial,sans-serif">200+</text>
  <text x="58" y="392" fill="#374151" font-size="8" font-family="Arial,sans-serif">Patient satisfaction</text>
  <text x="220" y="392" text-anchor="end" fill="#16A34A" font-size="8" font-weight="bold" font-family="Arial,sans-serif">98%</text>
  <text x="58" y="410" fill="#374151" font-size="8" font-family="Arial,sans-serif">Compliance record</text>
  <text x="220" y="410" text-anchor="end" fill="#16A34A" font-size="8" font-weight="bold" font-family="Arial,sans-serif">Zero violations</text>
  <text x="58" y="428" fill="#374151" font-size="8" font-family="Arial,sans-serif">Encryption</text>
  <text x="220" y="428" text-anchor="end" fill="#0EA5E9" font-size="8" font-weight="bold" font-family="Arial,sans-serif">End-to-end</text>
  <text x="58" y="446" fill="#374151" font-size="8" font-family="Arial,sans-serif">Audit logs</text>
  <text x="220" y="446" text-anchor="end" fill="#16A34A" font-size="8" font-weight="bold" font-family="Arial,sans-serif">Automated</text>

  <!-- Center: Video call -->
  <rect x="242" y="122" width="316" height="338" fill="#0F172A"/>
  <!-- Doctor video -->
  <rect x="250" y="130" width="300" height="210" rx="8" fill="#1E293B"/>
  <circle cx="400" cy="210" r="50" fill="#334155"/>
  <circle cx="400" cy="196" r="18" fill="#475569"/>
  <rect x="366" y="218" width="68" height="36" rx="18" fill="#475569"/>
  <text x="400" y="298" text-anchor="middle" fill="#94A3B8" font-size="10" font-family="Arial,sans-serif">Dr. James Carter</text>
  <text x="400" y="312" text-anchor="middle" fill="#64748B" font-size="9" font-family="Arial,sans-serif">General Practitioner</text>
  <!-- Patient pip -->
  <rect x="494" y="138" width="48" height="64" rx="6" fill="#1A2840" stroke="#0EA5E9" stroke-width="1.5"/>
  <circle cx="518" cy="162" r="10" fill="#334155"/>
  <circle cx="518" cy="156" r="7" fill="#475569"/>
  <rect x="506" y="168" width="24" height="14" rx="7" fill="#475569"/>
  <text x="518" y="196" text-anchor="middle" fill="#94A3B8" font-size="7" font-family="Arial,sans-serif">Patient</text>
  <!-- Controls -->
  <rect x="290" y="346" width="220" height="36" rx="18" fill="#1E293B"/>
  <circle cx="330" cy="364" r="12" fill="#EF4444"/>
  <text x="330" y="369" text-anchor="middle" fill="#FFF" font-size="10" font-family="Arial,sans-serif">✕</text>
  <circle cx="370" cy="364" r="12" fill="#374151"/>
  <text x="370" y="369" text-anchor="middle" fill="#FFF" font-size="10" font-family="Arial,sans-serif">🎤</text>
  <circle cx="410" cy="364" r="12" fill="#374151"/>
  <text x="410" y="369" text-anchor="middle" fill="#FFF" font-size="10" font-family="Arial,sans-serif">📷</text>
  <circle cx="450" cy="364" r="12" fill="#374151"/>
  <text x="450" y="369" text-anchor="middle" fill="#FFF" font-size="10" font-family="Arial,sans-serif">💬</text>
  <!-- Encrypted badge -->
  <rect x="292" y="392" width="216" height="20" rx="6" fill="#064E3B"/>
  <text x="400" y="405" text-anchor="middle" fill="#6EE7B7" font-size="8" font-family="Arial,sans-serif">🔒 End-to-end encrypted • WebRTC • HIPAA</text>
  <text x="400" y="424" text-anchor="middle" fill="#64748B" font-size="8" font-family="Arial,sans-serif">Session ID: MC-20240518-A3K2 • Logged</text>
  <rect x="292" y="432" width="216" height="20" rx="6" fill="#0EA5E91A" stroke="#0EA5E9" stroke-width="1"/>
  <text x="400" y="445" text-anchor="middle" fill="#0EA5E9" font-size="8" font-family="Arial,sans-serif">📋 View EHR Record • Add Note • Prescribe</text>

  <!-- Right: Patient vitals -->
  <rect x="558" y="122" width="198" height="338" fill="#FFF"/>
  <rect x="558" y="122" width="198" height="28" fill="#EFF6FF"/>
  <text x="570" y="141" fill="#1E40AF" font-size="10" font-weight="bold" font-family="Arial,sans-serif">Patient EHR</text>
  <text x="574" y="162" fill="#111827" font-size="9" font-weight="bold" font-family="Arial,sans-serif">Anna Klein</text>
  <text x="574" y="175" fill="#6B7280" font-size="8" font-family="Arial,sans-serif">DOB: 1985-03-12 • ID: P-4821</text>
  <line x1="566" y1="182" x2="748" y2="182" stroke="#E2E8F0" stroke-width="1"/>
  <!-- Vitals -->
  <text x="570" y="198" fill="#6B7280" font-size="8" font-weight="bold" font-family="Arial,sans-serif">VITALS</text>
  <rect x="566" y="204" width="92" height="38" rx="6" fill="#EFF6FF"/>
  <text x="612" y="218" text-anchor="middle" fill="#1E40AF" font-size="12" font-weight="bold" font-family="Arial,sans-serif">120/80</text>
  <text x="612" y="232" text-anchor="middle" fill="#6B7280" font-size="8" font-family="Arial,sans-serif">Blood Pressure</text>
  <rect x="664" y="204" width="82" height="38" rx="6" fill="#EFF6FF"/>
  <text x="705" y="218" text-anchor="middle" fill="#1E40AF" font-size="12" font-weight="bold" font-family="Arial,sans-serif">72 bpm</text>
  <text x="705" y="232" text-anchor="middle" fill="#6B7280" font-size="8" font-family="Arial,sans-serif">Heart Rate</text>
  <rect x="566" y="248" width="92" height="38" rx="6" fill="#F0FDF4"/>
  <text x="612" y="262" text-anchor="middle" fill="#15803D" font-size="12" font-weight="bold" font-family="Arial,sans-serif">98.2°F</text>
  <text x="612" y="276" text-anchor="middle" fill="#6B7280" font-size="8" font-family="Arial,sans-serif">Temperature</text>
  <rect x="664" y="248" width="82" height="38" rx="6" fill="#F0FDF4"/>
  <text x="705" y="262" text-anchor="middle" fill="#15803D" font-size="12" font-weight="bold" font-family="Arial,sans-serif">99%</text>
  <text x="705" y="276" text-anchor="middle" fill="#6B7280" font-size="8" font-family="Arial,sans-serif">O2 Saturation</text>
  <!-- Medications -->
  <line x1="566" y1="294" x2="748" y2="294" stroke="#E2E8F0" stroke-width="1"/>
  <text x="570" y="310" fill="#6B7280" font-size="8" font-weight="bold" font-family="Arial,sans-serif">ACTIVE MEDICATIONS</text>
  <text x="570" y="326" fill="#374151" font-size="9" font-family="Arial,sans-serif">Metformin 500mg</text>
  <text x="742" y="326" text-anchor="end" fill="#9CA3AF" font-size="8" font-family="Arial,sans-serif">Daily</text>
  <text x="570" y="342" fill="#374151" font-size="9" font-family="Arial,sans-serif">Lisinopril 10mg</text>
  <text x="742" y="342" text-anchor="end" fill="#9CA3AF" font-size="8" font-family="Arial,sans-serif">Morning</text>
  <line x1="566" y1="352" x2="748" y2="352" stroke="#E2E8F0" stroke-width="1"/>
  <text x="570" y="368" fill="#6B7280" font-size="8" font-weight="bold" font-family="Arial,sans-serif">LAST VISITS</text>
  <text x="570" y="384" fill="#374151" font-size="9" font-family="Arial,sans-serif">Video consult</text>
  <text x="742" y="384" text-anchor="end" fill="#9CA3AF" font-size="8" font-family="Arial,sans-serif">May 10</text>
  <text x="570" y="400" fill="#374151" font-size="9" font-family="Arial,sans-serif">Lab results</text>
  <text x="742" y="400" text-anchor="end" fill="#9CA3AF" font-size="8" font-family="Arial,sans-serif">Apr 28</text>
  <rect x="566" y="412" width="176" height="38" rx="6" fill="#EFF6FF" stroke="#BFDBFE" stroke-width="1"/>
  <text x="654" y="427" text-anchor="middle" fill="#1D4ED8" font-size="9" font-weight="bold" font-family="Arial,sans-serif">+ Add Clinical Note</text>
  <text x="654" y="442" text-anchor="middle" fill="#6B7280" font-size="8" font-family="Arial,sans-serif">Auto-logged • HIPAA audit trail</text>
</svg>
