<svg viewBox="0 0 800 500" xmlns="http://www.w3.org/2000/svg">
  <defs>
    <linearGradient id="bg" x1="0" y1="0" x2="800" y2="500" gradientUnits="userSpaceOnUse">
      <stop offset="0%" stop-color="#0A1628"/><stop offset="100%" stop-color="#0F2240"/>
    </linearGradient>
    <filter id="sh"><feDropShadow dx="0" dy="10" stdDeviation="18" flood-color="#000" flood-opacity="0.45"/></filter>
  </defs>
  <rect width="800" height="500" fill="url(#bg)"/>
  <circle cx="400" cy="100" r="220" fill="#10B981" opacity="0.07"/>

  <rect x="44" y="34" width="712" height="426" rx="12" fill="#FFFFFF" filter="url(#sh)"/>
  <path d="M44 46 Q44 34 56 34 L744 34 Q756 34 756 46 L756 78 L44 78 Z" fill="#0A1628"/>
  <circle cx="74" cy="56" r="6" fill="#EF4444" opacity="0.85"/>
  <circle cx="93" cy="56" r="6" fill="#F59E0B" opacity="0.85"/>
  <circle cx="112" cy="56" r="6" fill="#22C55E" opacity="0.85"/>
  <rect x="252" y="45" width="252" height="22" rx="11" fill="#0F1E35"/>
  <text x="378" y="61" text-anchor="middle" fill="#94A3B8" font-size="10" font-family="Arial,sans-serif">saas-delivery.app / sprint-board</text>

  <!-- Header -->
  <rect x="44" y="78" width="712" height="44" fill="#F0FDF4"/>
  <text x="64" y="106" fill="#065F46" font-size="13" font-weight="bold" font-family="Arial,sans-serif">🎯 Sprint #12 — PM Dashboard</text>
  <rect x="480" y="88" width="140" height="22" rx="6" fill="#DCFCE7" stroke="#6EE7B7" stroke-width="1"/>
  <text x="550" y="103" text-anchor="middle" fill="#065F46" font-size="9" font-family="Arial,sans-serif">Sprint ends in 4 days</text>
  <rect x="628" y="88" width="110" height="22" rx="6" fill="#10B981"/>
  <text x="683" y="103" text-anchor="middle" fill="#FFF" font-size="10" font-weight="bold" font-family="Arial,sans-serif">+ Add Task</text>

  <!-- Sprint progress bar -->
  <rect x="44" y="122" width="712" height="32" fill="#F8FAFC"/>
  <text x="60" y="143" fill="#374151" font-size="10" font-weight="bold" font-family="Arial,sans-serif">Sprint Progress</text>
  <rect x="180" y="133" width="480" height="10" rx="5" fill="#E2E8F0"/>
  <rect x="180" y="133" width="312" height="10" rx="5" fill="#10B981"/>
  <text x="670" y="143" fill="#374151" font-size="10" font-family="Arial,sans-serif">65% (13/20 points)</text>

  <!-- Sprint board columns -->
  <!-- Backlog -->
  <rect x="44" y="154" width="168" height="302" rx="8" fill="#F8FAFC" stroke="#E2E8F0" stroke-width="1"/>
  <rect x="44" y="154" width="168" height="28" rx="8" fill="#6B7280"/>
  <rect x="44" y="168" width="168" height="14" fill="#6B7280"/>
  <text x="128" y="172" text-anchor="middle" fill="#FFF" font-size="10" font-weight="bold" font-family="Arial,sans-serif">Backlog</text>
  <rect x="162" y="157" width="20" height="16" rx="8" fill="rgba(255,255,255,0.25)"/>
  <text x="172" y="169" text-anchor="middle" fill="#FFF" font-size="8" font-weight="bold" font-family="Arial,sans-serif">4</text>
  <rect x="52" y="190" width="152" height="44" rx="6" fill="#FFF" stroke="#E2E8F0" stroke-width="1"/>
  <text x="64" y="207" fill="#374151" font-size="9" font-weight="bold" font-family="Arial,sans-serif">Billing Module UI</text>
  <text x="64" y="220" fill="#9CA3AF" font-size="8" font-family="Arial,sans-serif">5 pts • Medium priority</text>
  <rect x="52" y="240" width="152" height="44" rx="6" fill="#FFF" stroke="#E2E8F0" stroke-width="1"/>
  <text x="64" y="257" fill="#374151" font-size="9" font-weight="bold" font-family="Arial,sans-serif">Export to CSV feature</text>
  <text x="64" y="270" fill="#9CA3AF" font-size="8" font-family="Arial,sans-serif">3 pts • Low priority</text>
  <rect x="52" y="290" width="152" height="44" rx="6" fill="#FFF" stroke="#E2E8F0" stroke-width="1"/>
  <text x="64" y="307" fill="#374151" font-size="9" font-weight="bold" font-family="Arial,sans-serif">SSO Integration</text>
  <text x="64" y="320" fill="#9CA3AF" font-size="8" font-family="Arial,sans-serif">8 pts • High priority</text>
  <rect x="64" y="326" width="44" height="4" rx="2" fill="#EF4444" opacity="0.6"/>

  <!-- In Progress -->
  <rect x="222" y="154" width="168" height="302" rx="8" fill="#EFF6FF" stroke="#BFDBFE" stroke-width="1.5"/>
  <rect x="222" y="154" width="168" height="28" rx="8" fill="#3B82F6"/>
  <rect x="222" y="168" width="168" height="14" fill="#3B82F6"/>
  <text x="306" y="172" text-anchor="middle" fill="#FFF" font-size="10" font-weight="bold" font-family="Arial,sans-serif">In Progress</text>
  <rect x="340" y="157" width="20" height="16" rx="8" fill="rgba(255,255,255,0.25)"/>
  <text x="350" y="169" text-anchor="middle" fill="#FFF" font-size="8" font-weight="bold" font-family="Arial,sans-serif">3</text>
  <rect x="230" y="190" width="152" height="56" rx="6" fill="#FFF" stroke="#BFDBFE" stroke-width="1.5"/>
  <text x="242" y="207" fill="#374151" font-size="9" font-weight="bold" font-family="Arial,sans-serif">Auth flow redesign</text>
  <text x="242" y="220" fill="#9CA3AF" font-size="8" font-family="Arial,sans-serif">5 pts • Dev: Alex K.</text>
  <rect x="242" y="225" width="130" height="6" rx="3" fill="#DBEAFE"/>
  <rect x="242" y="225" width="90" height="6" rx="3" fill="#3B82F6"/>
  <text x="242" y="240" fill="#6B7280" font-size="8" font-family="Arial,sans-serif">70% complete</text>
  <rect x="230" y="252" width="152" height="56" rx="6" fill="#FFF" stroke="#BFDBFE" stroke-width="1"/>
  <text x="242" y="269" fill="#374151" font-size="9" font-weight="bold" font-family="Arial,sans-serif">Dashboard API</text>
  <text x="242" y="282" fill="#9CA3AF" font-size="8" font-family="Arial,sans-serif">3 pts • Dev: Priya M.</text>
  <rect x="242" y="287" width="130" height="6" rx="3" fill="#DBEAFE"/>
  <rect x="242" y="287" width="50" height="6" rx="3" fill="#3B82F6"/>
  <text x="242" y="302" fill="#6B7280" font-size="8" font-family="Arial,sans-serif">38% complete</text>

  <!-- Done -->
  <rect x="400" y="154" width="168" height="302" rx="8" fill="#F0FDF4" stroke="#6EE7B7" stroke-width="1.5"/>
  <rect x="400" y="154" width="168" height="28" rx="8" fill="#10B981"/>
  <rect x="400" y="168" width="168" height="14" fill="#10B981"/>
  <text x="484" y="172" text-anchor="middle" fill="#FFF" font-size="10" font-weight="bold" font-family="Arial,sans-serif">Done ✓</text>
  <rect x="518" y="157" width="20" height="16" rx="8" fill="rgba(255,255,255,0.25)"/>
  <text x="528" y="169" text-anchor="middle" fill="#FFF" font-size="8" font-weight="bold" font-family="Arial,sans-serif">6</text>
  <rect x="408" y="190" width="152" height="44" rx="6" fill="#FFF" stroke="#6EE7B7" stroke-width="1"/>
  <text x="420" y="207" fill="#374151" font-size="9" font-weight="bold" font-family="Arial,sans-serif">User onboarding flow ✓</text>
  <text x="420" y="220" fill="#9CA3AF" font-size="8" font-family="Arial,sans-serif">8 pts • Delivered May 18</text>
  <rect x="408" y="240" width="152" height="44" rx="6" fill="#FFF" stroke="#6EE7B7" stroke-width="1"/>
  <text x="420" y="257" fill="#374151" font-size="9" font-weight="bold" font-family="Arial,sans-serif">Payment webhook ✓</text>
  <text x="420" y="270" fill="#9CA3AF" font-size="8" font-family="Arial,sans-serif">5 pts • Delivered May 17</text>
  <rect x="408" y="290" width="152" height="44" rx="6" fill="#FFF" stroke="#6EE7B7" stroke-width="1"/>
  <text x="420" y="307" fill="#374151" font-size="9" font-weight="bold" font-family="Arial,sans-serif">Email templates ✓</text>
  <text x="420" y="320" fill="#9CA3AF" font-size="8" font-family="Arial,sans-serif">2 pts • Delivered May 16</text>

  <!-- Burndown chart panel -->
  <rect x="578" y="154" width="178" height="302" rx="8" fill="#FFF" stroke="#E2E8F0" stroke-width="1"/>
  <text x="594" y="176" fill="#374151" font-size="10" font-weight="bold" font-family="Arial,sans-serif">Burndown Chart</text>
  <!-- Chart area -->
  <rect x="590" y="185" width="154" height="100" rx="4" fill="#F8FAFC"/>
  <!-- Ideal line -->
  <line x1="590" y1="185" x2="744" y2="285" stroke="#E2E8F0" stroke-width="1.5" stroke-dasharray="4 2"/>
  <!-- Actual line -->
  <polyline points="590,185 620,200 650,225 680,232 710,240 744,260" fill="none" stroke="#10B981" stroke-width="2.5" stroke-linecap="round"/>
  <circle cx="744" cy="260" r="4" fill="#10B981"/>
  <text x="590" y="303" fill="#9CA3AF" font-size="8" font-family="Arial,sans-serif">Day 1 → Day 10</text>
  <!-- Team -->
  <rect x="578" y="310" width="178" height="1" fill="#E2E8F0"/>
  <text x="594" y="328" fill="#374151" font-size="10" font-weight="bold" font-family="Arial,sans-serif">Team</text>
  <circle cx="608" cy="352" r="14" fill="#DBEAFE"/>
  <text x="608" y="357" text-anchor="middle" fill="#2563EB" font-size="10" font-weight="bold" font-family="Arial,sans-serif">AK</text>
  <circle cx="638" cy="352" r="14" fill="#FCE7F3"/>
  <text x="638" y="357" text-anchor="middle" fill="#DB2777" font-size="10" font-weight="bold" font-family="Arial,sans-serif">PM</text>
  <circle cx="668" cy="352" r="14" fill="#D1FAE5"/>
  <text x="668" y="357" text-anchor="middle" fill="#065F46" font-size="10" font-weight="bold" font-family="Arial,sans-serif">PM</text>
  <circle cx="698" cy="352" r="14" fill="#FEF3C7"/>
  <text x="698" y="357" text-anchor="middle" fill="#D97706" font-size="10" font-weight="bold" font-family="Arial,sans-serif">QA</text>
  <text x="594" y="386" fill="#6B7280" font-size="8" font-family="Arial,sans-serif">4 members • Daily standup 9AM</text>
  <!-- Velocity -->
  <rect x="590" y="398" width="154" height="48" rx="6" fill="#F0FDF4" stroke="#6EE7B7" stroke-width="1"/>
  <text x="600" y="416" fill="#065F46" font-size="9" font-weight="bold" font-family="Arial,sans-serif">Velocity: 13pts/sprint</text>
  <text x="600" y="430" fill="#6B7280" font-size="8" font-family="Arial,sans-serif">Target: 20pts • On track ✓</text>
  <text x="600" y="440" fill="#6B7280" font-size="8" font-family="Arial,sans-serif">Blockers: 0</text>
</svg>
