<svg viewBox="0 0 800 500" xmlns="http://www.w3.org/2000/svg">
  <defs>
    <linearGradient id="bg" x1="0" y1="0" x2="800" y2="500" gradientUnits="userSpaceOnUse">
      <stop offset="0%" stop-color="#0C1A2E"/><stop offset="100%" stop-color="#1A3045"/>
    </linearGradient>
    <filter id="sh"><feDropShadow dx="0" dy="10" stdDeviation="18" flood-color="#000" flood-opacity="0.45"/></filter>
  </defs>
  <rect width="800" height="500" fill="url(#bg)"/>
  <circle cx="620" cy="80" r="200" fill="#0EA5E9" opacity="0.07"/>
  <circle cx="100" cy="430" r="150" fill="#0EA5E9" opacity="0.04"/>

  <rect x="44" y="34" width="712" height="426" rx="12" fill="#FFFFFF" filter="url(#sh)"/>
  <path d="M44 46 Q44 34 56 34 L744 34 Q756 34 756 46 L756 78 L44 78 Z" fill="#0F2340"/>
  <circle cx="74" cy="56" r="6" fill="#EF4444" opacity="0.85"/>
  <circle cx="93" cy="56" r="6" fill="#F59E0B" opacity="0.85"/>
  <circle cx="112" cy="56" r="6" fill="#22C55E" opacity="0.85"/>
  <rect x="252" y="45" width="252" height="22" rx="11" fill="#1A3050"/>
  <text x="378" y="61" text-anchor="middle" fill="#94A3B8" font-size="10" font-family="Arial,sans-serif">groomify.app / services</text>

  <!-- Top hero -->
  <rect x="44" y="78" width="712" height="60" fill="#F0F9FF"/>
  <text x="60" y="102" fill="#0369A1" font-size="13" font-weight="bold" font-family="Arial,sans-serif">Find &amp; Book Premium Grooming Services</text>
  <rect x="60" y="110" width="340" height="22" rx="11" fill="#FFF" stroke="#BAE6FD" stroke-width="1.5"/>
  <text x="80" y="125" fill="#94A3B8" font-size="10" font-family="Arial,sans-serif">Search services near you...</text>
  <rect x="410" y="110" width="80" height="22" rx="11" fill="#0EA5E9"/>
  <text x="450" y="125" text-anchor="middle" fill="#FFF" font-size="10" font-weight="bold" font-family="Arial,sans-serif">Search</text>
  <text x="560" y="125" fill="#0EA5E9" font-size="10" font-family="Arial,sans-serif">Haircut • Beard • Spa • Waxing</text>

  <!-- Category pills -->
  <rect x="44" y="138" width="712" height="34" fill="#FFF"/>
  <rect x="60" y="145" width="64" height="20" rx="10" fill="#0EA5E9"/>
  <text x="92" y="159" text-anchor="middle" fill="#FFF" font-size="9" font-weight="bold" font-family="Arial,sans-serif">All</text>
  <rect x="130" y="145" width="64" height="20" rx="10" fill="#F0F9FF" stroke="#BAE6FD" stroke-width="1"/>
  <text x="162" y="159" text-anchor="middle" fill="#0369A1" font-size="9" font-family="Arial,sans-serif">Haircut</text>
  <rect x="200" y="145" width="64" height="20" rx="10" fill="#F0F9FF" stroke="#BAE6FD" stroke-width="1"/>
  <text x="232" y="159" text-anchor="middle" fill="#0369A1" font-size="9" font-family="Arial,sans-serif">Beard</text>
  <rect x="270" y="145" width="64" height="20" rx="10" fill="#F0F9FF" stroke="#BAE6FD" stroke-width="1"/>
  <text x="302" y="159" text-anchor="middle" fill="#0369A1" font-size="9" font-family="Arial,sans-serif">Spa</text>
  <rect x="340" y="145" width="64" height="20" rx="10" fill="#F0F9FF" stroke="#BAE6FD" stroke-width="1"/>
  <text x="372" y="159" text-anchor="middle" fill="#0369A1" font-size="9" font-family="Arial,sans-serif">Waxing</text>

  <!-- Service cards grid (left 2/3) -->
  <rect x="44" y="172" width="490" height="288" fill="#F8FAFC"/>
  <text x="56" y="192" fill="#374151" font-size="11" font-weight="bold" font-family="Arial,sans-serif">Featured Services</text>

  <!-- Card 1 -->
  <rect x="56" y="200" width="150" height="145" rx="10" fill="#FFF" stroke="#E0F2FE" stroke-width="1.5"/>
  <rect x="56" y="200" width="150" height="60" rx="10" fill="#0EA5E9" opacity="0.18"/>
  <text x="131" y="237" text-anchor="middle" fill="#0EA5E9" font-size="22" font-family="Arial,sans-serif">✂</text>
  <text x="131" y="275" text-anchor="middle" fill="#111827" font-size="11" font-weight="bold" font-family="Arial,sans-serif">Classic Haircut</text>
  <text x="131" y="290" text-anchor="middle" fill="#6B7280" font-size="9" font-family="Arial,sans-serif">GroomPro Studio</text>
  <text x="131" y="305" text-anchor="middle" fill="#0EA5E9" font-size="11" font-weight="bold" font-family="Arial,sans-serif">$35</text>
  <rect x="70" y="312" width="122" height="22" rx="6" fill="#0EA5E9"/>
  <text x="131" y="327" text-anchor="middle" fill="#FFF" font-size="10" font-weight="bold" font-family="Arial,sans-serif">Book Now</text>

  <!-- Card 2 -->
  <rect x="216" y="200" width="150" height="145" rx="10" fill="#FFF" stroke="#E0F2FE" stroke-width="1.5"/>
  <rect x="216" y="200" width="150" height="60" rx="10" fill="#0EA5E9" opacity="0.12"/>
  <text x="291" y="237" text-anchor="middle" fill="#0EA5E9" font-size="22" font-family="Arial,sans-serif">🧔</text>
  <text x="291" y="275" text-anchor="middle" fill="#111827" font-size="11" font-weight="bold" font-family="Arial,sans-serif">Beard Trim &amp; Shape</text>
  <text x="291" y="290" text-anchor="middle" fill="#6B7280" font-size="9" font-family="Arial,sans-serif">Elite Barber Co.</text>
  <text x="291" y="305" text-anchor="middle" fill="#0EA5E9" font-size="11" font-weight="bold" font-family="Arial,sans-serif">$28</text>
  <rect x="230" y="312" width="122" height="22" rx="6" fill="#E0F2FE"/>
  <text x="291" y="327" text-anchor="middle" fill="#0369A1" font-size="10" font-weight="bold" font-family="Arial,sans-serif">Book Now</text>

  <!-- Card 3 -->
  <rect x="376" y="200" width="150" height="145" rx="10" fill="#FFF" stroke="#E0F2FE" stroke-width="1.5"/>
  <rect x="376" y="200" width="150" height="60" rx="10" fill="#0EA5E9" opacity="0.08"/>
  <text x="451" y="237" text-anchor="middle" fill="#0EA5E9" font-size="22" font-family="Arial,sans-serif">💆</text>
  <text x="451" y="275" text-anchor="middle" fill="#111827" font-size="11" font-weight="bold" font-family="Arial,sans-serif">Relaxing Spa</text>
  <text x="451" y="290" text-anchor="middle" fill="#6B7280" font-size="9" font-family="Arial,sans-serif">LuxeWellness Spa</text>
  <text x="451" y="305" text-anchor="middle" fill="#0EA5E9" font-size="11" font-weight="bold" font-family="Arial,sans-serif">$75</text>
  <rect x="390" y="312" width="122" height="22" rx="6" fill="#E0F2FE"/>
  <text x="451" y="327" text-anchor="middle" fill="#0369A1" font-size="10" font-weight="bold" font-family="Arial,sans-serif">Book Now</text>

  <!-- Second row cards placeholder -->
  <rect x="56" y="360" width="470" height="90" rx="10" fill="#FFF" stroke="#E2E8F0" stroke-width="1"/>
  <text x="70" y="382" fill="#374151" font-size="11" font-weight="bold" font-family="Arial,sans-serif">Hot Towel Shave Package</text>
  <text x="70" y="398" fill="#6B7280" font-size="10" font-family="Arial,sans-serif">ClassicCuts • ⭐ 4.9 (312 reviews)</text>
  <text x="70" y="415" fill="#0EA5E9" font-size="12" font-weight="bold" font-family="Arial,sans-serif">$45</text>
  <rect x="370" y="368" width="140" height="28" rx="8" fill="#0EA5E9"/>
  <text x="440" y="386" text-anchor="middle" fill="#FFF" font-size="11" font-weight="bold" font-family="Arial,sans-serif">Book Appointment</text>
  <text x="72" y="435" fill="#9CA3AF" font-size="9" font-family="Arial,sans-serif">60 min • Available today</text>

  <!-- Booking sidebar -->
  <rect x="534" y="172" width="222" height="288" rx="10" fill="#FFF" stroke="#E0F2FE" stroke-width="1.5"/>
  <rect x="534" y="172" width="222" height="40" rx="10" fill="#0EA5E9" opacity="0.1"/>
  <rect x="534" y="198" width="222" height="14" fill="#0EA5E9" opacity="0.1"/>
  <text x="645" y="197" text-anchor="middle" fill="#0369A1" font-size="11" font-weight="bold" font-family="Arial,sans-serif">Your Booking</text>
  <text x="548" y="228" fill="#374151" font-size="10" font-weight="bold" font-family="Arial,sans-serif">Classic Haircut</text>
  <text x="548" y="243" fill="#6B7280" font-size="9" font-family="Arial,sans-serif">GroomPro Studio</text>
  <rect x="534" y="255" width="222" height="1" fill="#E0F2FE"/>
  <text x="548" y="272" fill="#6B7280" font-size="10" font-family="Arial,sans-serif">Date</text>
  <text x="548" y="288" fill="#111827" font-size="11" font-weight="bold" font-family="Arial,sans-serif">Thursday, 22 May</text>
  <text x="548" y="308" fill="#6B7280" font-size="10" font-family="Arial,sans-serif">Time</text>
  <div/>
  <text x="548" y="324" fill="#111827" font-size="11" font-weight="bold" font-family="Arial,sans-serif">2:30 PM</text>
  <rect x="534" y="336" width="222" height="1" fill="#E0F2FE"/>
  <text x="548" y="354" fill="#6B7280" font-size="10" font-family="Arial,sans-serif">Service fee</text>
  <text x="744" y="354" text-anchor="end" fill="#374151" font-size="10" font-family="Arial,sans-serif">$35.00</text>
  <text x="548" y="372" fill="#6B7280" font-size="10" font-family="Arial,sans-serif">Platform fee</text>
  <text x="744" y="372" text-anchor="end" fill="#374151" font-size="10" font-family="Arial,sans-serif">$2.50</text>
  <rect x="534" y="382" width="222" height="1" fill="#E0F2FE"/>
  <text x="548" y="402" fill="#111827" font-size="11" font-weight="bold" font-family="Arial,sans-serif">Total</text>
  <text x="744" y="402" text-anchor="end" fill="#0EA5E9" font-size="12" font-weight="bold" font-family="Arial,sans-serif">$37.50</text>
  <rect x="546" y="412" width="198" height="32" rx="8" fill="#0EA5E9"/>
  <text x="645" y="432" text-anchor="middle" fill="#FFF" font-size="11" font-weight="bold" font-family="Arial,sans-serif">Confirm Booking</text>
</svg>
