<svg viewBox="0 0 800 500" xmlns="http://www.w3.org/2000/svg">
  <defs>
    <linearGradient id="bg" x1="0" y1="0" x2="800" y2="500" gradientUnits="userSpaceOnUse">
      <stop offset="0%" stop-color="#1E1B4B"/><stop offset="100%" stop-color="#2D1F5E"/>
    </linearGradient>
    <filter id="sh"><feDropShadow dx="0" dy="10" stdDeviation="18" flood-color="#000" flood-opacity="0.45"/></filter>
  </defs>
  <rect width="800" height="500" fill="url(#bg)"/>
  <circle cx="200" cy="100" r="200" fill="#8B5CF6" opacity="0.08"/>
  <circle cx="700" cy="450" r="160" fill="#7C3AED" opacity="0.05"/>

  <rect x="44" y="34" width="712" height="426" rx="12" fill="#FFFFFF" filter="url(#sh)"/>
  <path d="M44 46 Q44 34 56 34 L744 34 Q756 34 756 46 L756 78 L44 78 Z" fill="#1E1B4B"/>
  <circle cx="74" cy="56" r="6" fill="#EF4444" opacity="0.85"/>
  <circle cx="93" cy="56" r="6" fill="#F59E0B" opacity="0.85"/>
  <circle cx="112" cy="56" r="6" fill="#22C55E" opacity="0.85"/>
  <rect x="252" y="45" width="252" height="22" rx="11" fill="#2D2770"/>
  <text x="378" y="61" text-anchor="middle" fill="#94A3B8" font-size="10" font-family="Arial,sans-serif">insights.platform / dashboard</text>

  <!-- Left sidebar -->
  <rect x="44" y="78" width="150" height="382" fill="#F5F3FF"/>
  <rect x="194" y="78" width="1" height="382" fill="#E2E8F0"/>
  <text x="60" y="108" fill="#7C3AED" font-size="12" font-weight="bold" font-family="Arial,sans-serif">InsightAI</text>
  <text x="60" y="140" fill="#6B7280" font-size="10" font-family="Arial,sans-serif">📊 Dashboard</text>
  <rect x="56" y="150" width="126" height="24" rx="6" fill="#EDE9FE"/>
  <text x="60" y="167" fill="#7C3AED" font-size="10" font-weight="bold" font-family="Arial,sans-serif">📝 Surveys</text>
  <text x="60" y="195" fill="#6B7280" font-size="10" font-family="Arial,sans-serif">📈 Analytics</text>
  <text x="60" y="220" fill="#6B7280" font-size="10" font-family="Arial,sans-serif">🤖 AI Insights</text>
  <text x="60" y="245" fill="#6B7280" font-size="10" font-family="Arial,sans-serif">👥 Respondents</text>
  <text x="60" y="270" fill="#6B7280" font-size="10" font-family="Arial,sans-serif">⚙️ Settings</text>

  <!-- Stat cards -->
  <rect x="206" y="86" width="126" height="64" rx="8" fill="#FFF" stroke="#EDE9FE" stroke-width="1.5"/>
  <text x="220" y="112" fill="#9CA3AF" font-size="9" font-family="Arial,sans-serif">Total Responses</text>
  <text x="220" y="132" fill="#111827" font-size="20" font-weight="bold" font-family="Arial,sans-serif">4,821</text>
  <text x="220" y="145" fill="#16A34A" font-size="9" font-family="Arial,sans-serif">↑ 18% vs last month</text>

  <rect x="342" y="86" width="126" height="64" rx="8" fill="#FFF" stroke="#EDE9FE" stroke-width="1.5"/>
  <text x="356" y="112" fill="#9CA3AF" font-size="9" font-family="Arial,sans-serif">Active Surveys</text>
  <text x="356" y="132" fill="#111827" font-size="20" font-weight="bold" font-family="Arial,sans-serif">12</text>
  <text x="356" y="145" fill="#8B5CF6" font-size="9" font-family="Arial,sans-serif">3 pending review</text>

  <rect x="478" y="86" width="126" height="64" rx="8" fill="#FFF" stroke="#EDE9FE" stroke-width="1.5"/>
  <text x="492" y="112" fill="#9CA3AF" font-size="9" font-family="Arial,sans-serif">Avg Score</text>
  <text x="492" y="132" fill="#7C3AED" font-size="20" font-weight="bold" font-family="Arial,sans-serif">7.4 / 10</text>
  <text x="492" y="145" fill="#9CA3AF" font-size="9" font-family="Arial,sans-serif">Employee NPS</text>

  <rect x="614" y="86" width="126" height="64" rx="8" fill="#7C3AED"/>
  <text x="628" y="112" fill="rgba(255,255,255,0.7)" font-size="9" font-family="Arial,sans-serif">AI Recommendations</text>
  <text x="628" y="132" fill="#FFF" font-size="20" font-weight="bold" font-family="Arial,sans-serif">8</text>
  <text x="628" y="145" fill="rgba(255,255,255,0.6)" font-size="9" font-family="Arial,sans-serif">New this week</text>

  <!-- Chart area -->
  <rect x="206" y="162" width="370" height="180" rx="8" fill="#FFF" stroke="#E2E8F0" stroke-width="1"/>
  <text x="220" y="182" fill="#374151" font-size="11" font-weight="bold" font-family="Arial,sans-serif">Survey Response Trends</text>
  <text x="560" y="182" text-anchor="end" fill="#9CA3AF" font-size="9" font-family="Arial,sans-serif">Last 6 months</text>
  <!-- Bar chart -->
  <rect x="230" y="250" width="32" height="60" rx="3" fill="#8B5CF6" opacity="0.4"/>
  <rect x="274" y="230" width="32" height="80" rx="3" fill="#8B5CF6" opacity="0.5"/>
  <rect x="318" y="210" width="32" height="100" rx="3" fill="#8B5CF6" opacity="0.6"/>
  <rect x="362" y="220" width="32" height="90" rx="3" fill="#8B5CF6" opacity="0.7"/>
  <rect x="406" y="195" width="32" height="115" rx="3" fill="#7C3AED"/>
  <rect x="450" y="185" width="32" height="125" rx="3" fill="#6D28D9"/>
  <text x="246" y="328" text-anchor="middle" fill="#9CA3AF" font-size="8" font-family="Arial,sans-serif">Dec</text>
  <text x="290" y="328" text-anchor="middle" fill="#9CA3AF" font-size="8" font-family="Arial,sans-serif">Jan</text>
  <text x="334" y="328" text-anchor="middle" fill="#9CA3AF" font-size="8" font-family="Arial,sans-serif">Feb</text>
  <text x="378" y="328" text-anchor="middle" fill="#9CA3AF" font-size="8" font-family="Arial,sans-serif">Mar</text>
  <text x="422" y="328" text-anchor="middle" fill="#9CA3AF" font-size="8" font-family="Arial,sans-serif">Apr</text>
  <text x="466" y="328" text-anchor="middle" fill="#9CA3AF" font-size="8" font-family="Arial,sans-serif">May</text>

  <!-- Donut chart -->
  <rect x="586" y="162" width="154" height="180" rx="8" fill="#FFF" stroke="#E2E8F0" stroke-width="1"/>
  <text x="600" y="182" fill="#374151" font-size="11" font-weight="bold" font-family="Arial,sans-serif">Sentiment</text>
  <circle cx="663" cy="285" r="50" fill="none" stroke="#E2E8F0" stroke-width="20"/>
  <circle cx="663" cy="285" r="50" fill="none" stroke="#7C3AED" stroke-width="20" stroke-dasharray="188 126" stroke-dashoffset="0"/>
  <circle cx="663" cy="285" r="50" fill="none" stroke="#22C55E" stroke-width="20" stroke-dasharray="63 251" stroke-dashoffset="-188"/>
  <circle cx="663" cy="285" r="50" fill="none" stroke="#EF4444" stroke-width="20" stroke-dasharray="63 251" stroke-dashoffset="-251"/>
  <text x="663" y="290" text-anchor="middle" fill="#111827" font-size="14" font-weight="bold" font-family="Arial,sans-serif">60%</text>
  <text x="663" y="305" text-anchor="middle" fill="#6B7280" font-size="9" font-family="Arial,sans-serif">Positive</text>

  <!-- AI Recommendations panel -->
  <rect x="206" y="354" width="534" height="106" rx="8" fill="#F5F3FF" stroke="#DDD6FE" stroke-width="1.5"/>
  <text x="220" y="374" fill="#7C3AED" font-size="11" font-weight="bold" font-family="Arial,sans-serif">🤖 AI Recommendations</text>
  <rect x="220" y="382" width="240" height="36" rx="6" fill="#FFF" stroke="#EDE9FE" stroke-width="1"/>
  <text x="232" y="397" fill="#374151" font-size="10" font-family="Arial,sans-serif">Improve onboarding communication</text>
  <text x="232" y="411" fill="#7C3AED" font-size="9" font-family="Arial,sans-serif">High impact • Q2 priority</text>
  <rect x="470" y="382" width="255" height="36" rx="6" fill="#FFF" stroke="#EDE9FE" stroke-width="1"/>
  <text x="482" y="397" fill="#374151" font-size="10" font-family="Arial,sans-serif">Schedule quarterly feedback cycles</text>
  <text x="482" y="411" fill="#8B5CF6" font-size="9" font-family="Arial,sans-serif">Medium impact • HR team action</text>
  <text x="220" y="450" fill="#9CA3AF" font-size="9" font-family="Arial,sans-serif">Based on 4,821 responses analyzed by AI model • Updated 2 hours ago</text>
</svg>
